<svg width="30" height="30" viewBox="0 0 30 30" fill="none" xmlns="http://www.w3.org/2000/svg">
<path d="M28.9831 14.9152C28.9831 22.812 22.5815 29.2135 14.6847 29.2135C6.78801 29.2135 0.386441 22.812 0.386441 14.9152C0.386441 7.01848 6.78801 0.616909 14.6847 0.616909C22.5815 0.616909 28.9831 7.01848 28.9831 14.9152Z" fill="#E4E4E4" stroke="white" stroke-width="0.772881"/>
<path d="M8.03706 17.8982V15.8291H5.94675V15.0863H8.03706V13.0172H8.99202V15.0863H11.0823V15.8291H8.99202V17.8982H8.03706ZM14.222 19.1714C13.642 19.1714 13.168 19.0689 12.8002 18.8637C12.4323 18.6586 12.0999 18.3792 11.8028 18.0255L12.1105 17.7496C12.3793 18.0821 12.6799 18.3226 13.0124 18.4711C13.3519 18.6197 13.6738 18.694 13.978 18.694C14.2538 18.694 14.5014 18.6374 14.7207 18.5242C14.94 18.4039 15.1133 18.2165 15.2406 17.9618C15.375 17.7001 15.4422 17.3606 15.4422 16.9432C15.4422 16.3914 15.2937 15.9812 14.9966 15.7124C14.7066 15.4436 14.2963 15.3092 13.7657 15.3092C13.5252 15.3092 13.2777 15.341 13.023 15.4047C12.7754 15.4612 12.5809 15.5108 12.4394 15.5532L12.015 15.1394L12.1317 11.9562H16.2593V12.423H13.3625L13.267 14.8741L13.5854 14.8529C13.6773 14.8458 13.7764 14.8387 13.8825 14.8317C13.9886 14.8246 14.0911 14.8211 14.1902 14.8211C14.4661 14.8211 14.7632 14.8529 15.0815 14.9166C15.3998 14.9802 15.6969 15.0934 15.9728 15.2561C16.2557 15.4117 16.4856 15.6275 16.6625 15.9034C16.8393 16.1792 16.9277 16.5258 16.9277 16.9432C16.9277 17.3888 16.8358 17.7567 16.6519 18.0467C16.4679 18.3367 16.2345 18.5631 15.9515 18.7258C15.6686 18.8885 15.3715 19.0017 15.0602 19.0653C14.7561 19.1361 14.4767 19.1714 14.222 19.1714ZM20.4176 19.1714C19.7456 19.1714 19.2044 19.0158 18.7941 18.7046C18.3909 18.3933 18.1009 17.9583 17.9241 17.3995C17.7472 16.8406 17.6588 16.1934 17.6588 15.4577C17.6588 14.722 17.7472 14.0748 17.9241 13.5159C18.1009 12.9571 18.3909 12.5221 18.7941 12.2108C19.2044 11.8996 19.7456 11.744 20.4176 11.744C21.0967 11.744 21.6378 11.8996 22.041 12.2108C22.4442 12.5221 22.7342 12.9571 22.9111 13.5159C23.0879 14.0748 23.1763 14.722 23.1763 15.4577C23.1763 16.1934 23.0879 16.8406 22.9111 17.3995C22.7342 17.9583 22.4442 18.3933 22.041 18.7046C21.6378 19.0158 21.0967 19.1714 20.4176 19.1714ZM20.4176 18.694C20.8632 18.694 21.1851 18.4358 21.3831 17.9194C21.5883 17.3959 21.6908 16.5754 21.6908 15.4577C21.6908 14.34 21.5883 13.523 21.3831 13.0066C21.1851 12.4832 20.8632 12.2214 20.4176 12.2214C19.9719 12.2214 19.6465 12.4832 19.4414 13.0066C19.2433 13.523 19.1443 14.34 19.1443 15.4577C19.1443 16.5754 19.2433 17.3959 19.4414 17.9194C19.6465 18.4358 19.9719 18.694 20.4176 18.694Z" fill="black"/>
</svg>
