<svg width="39" height="35" viewBox="0 0 39 35" fill="none" xmlns="http://www.w3.org/2000/svg">
<g filter="url(#filter0_d_122_4469)">
<rect x="13.369" y="29.0112" width="11.3692" height="23.2671" rx="2.73206" transform="rotate(180 13.369 29.0112)" fill="url(#paint0_linear_122_4469)"/>
</g>
<g filter="url(#filter1_d_122_4469)">
<rect x="37.0818" y="29.0112" width="11.3692" height="23.2671" rx="2.73206" transform="rotate(180 37.0818 29.0112)" fill="url(#paint1_linear_122_4469)"/>
</g>
<path d="M9.5436 18.2682C9.51139 18.3595 9.4738 18.4508 9.44159 18.542C9.43622 18.542 9.43085 18.542 9.43085 18.542C9.37716 18.279 9.26978 18.0427 9.02281 17.8978C9.02281 17.8924 9.02818 17.887 9.02818 17.8817C9.08724 17.887 9.15167 17.8924 9.21072 17.9031C9.21072 17.8978 9.21609 17.8924 9.21609 17.8817C9.18925 17.8709 9.16777 17.8656 9.14093 17.8602C8.92617 17.8065 8.70604 17.8172 8.48592 17.8494C8.30874 17.8763 8.13693 17.9139 7.96513 17.9515C7.60541 18.0212 7.32622 17.8978 7.11146 17.6132C7.10072 17.5971 7.09536 17.581 7.07925 17.5595C7.25642 17.5756 7.41749 17.5971 7.58393 17.6132C7.58393 17.6078 7.5893 17.6025 7.5893 17.5971C7.28864 17.5219 7.07388 17.3609 6.98798 17.0548C6.99334 17.0495 6.99335 17.0441 6.99871 17.0387C7.08462 17.0871 7.17589 17.13 7.26179 17.1783C7.00945 16.9099 6.93966 16.5877 6.9665 16.2334C7.0363 16.3247 7.09536 16.4213 7.18663 16.4804C7.14368 16.3461 7.09535 16.2119 7.05777 16.0723C7.02556 15.9327 7.02556 15.7878 7.09536 15.6535C7.11683 15.8039 7.17052 15.9327 7.26179 16.0508C7.16515 15.7287 7.17589 15.4173 7.31011 15.1059C7.32622 15.0683 7.35307 15.0361 7.38528 15.0093C7.33696 15.1972 7.33159 15.3797 7.39065 15.5676C7.39602 15.5623 7.40138 15.5569 7.40675 15.5515C7.43897 15.4119 7.52487 15.3046 7.61614 15.1972C7.69131 15.1113 7.75574 15.02 7.82016 14.9287C7.84701 14.8911 7.85775 14.8482 7.88459 14.8106C7.87385 14.9395 7.85775 15.0683 7.84164 15.2079C7.95439 14.9985 8.01345 14.7891 8.03492 14.5636C8.04029 14.5636 8.04566 14.5636 8.05103 14.5636C8.06177 14.6066 8.07251 14.6549 8.08324 14.6979C8.08861 14.7462 8.09398 14.7945 8.09935 14.8428C8.20136 14.4885 8.18525 14.1234 8.13156 13.7637C8.13693 13.7637 8.1423 13.7583 8.1423 13.7583C8.15841 13.7798 8.17452 13.8013 8.19062 13.8227C8.30337 13.9999 8.35706 14.1986 8.37854 14.4026C8.41075 14.7032 8.36243 14.9932 8.2819 15.2777C8.23358 15.4549 8.16915 15.6267 8.11009 15.8039C8.10472 15.8146 8.10472 15.8253 8.09935 15.8361C8.19062 15.7126 8.2819 15.5891 8.44296 15.5408C8.31948 15.6858 8.23357 15.8468 8.17988 16.0401C8.23894 15.9918 8.29263 15.9542 8.34632 15.9113C8.35169 15.9166 8.35706 15.9166 8.35706 15.922C8.34632 15.9542 8.34095 15.9864 8.33021 16.0186C8.27652 16.2173 8.24431 16.4213 8.2819 16.6307C8.298 16.7327 8.33558 16.824 8.40538 16.9045C8.50202 17.0119 8.62551 17.0441 8.75973 16.9904C8.88322 16.9475 9.0067 16.8938 9.13019 16.8454C9.25368 16.7971 9.37716 16.7918 9.50065 16.8454C9.52749 16.8562 9.5436 16.8508 9.55434 16.8186C9.68856 16.5126 9.88721 16.2602 10.1503 16.0562C10.1825 16.0347 10.1771 16.0133 10.161 15.9864C10.1181 15.9166 10.0912 15.8468 10.1127 15.7663C10.1234 15.7287 10.1449 15.6965 10.161 15.6643C10.1664 15.6643 10.1718 15.6696 10.1771 15.6696C10.1771 15.6858 10.1771 15.6965 10.1771 15.7126C10.1771 15.8146 10.2362 15.8898 10.3382 15.9005C10.4134 15.9059 10.4885 15.9005 10.5583 15.9005C10.6979 15.9005 10.8321 15.9166 10.961 15.981C11.0523 16.0294 11.1221 16.0992 11.1597 16.1958C11.1704 16.228 11.1919 16.2388 11.2187 16.2495C11.267 16.2602 11.3154 16.2763 11.3583 16.2978C11.4013 16.3193 11.4227 16.3569 11.412 16.4159C11.3744 16.3945 11.3422 16.3784 11.3046 16.3569C11.3154 16.4159 11.2831 16.3998 11.2563 16.3998C11.0308 16.4106 10.8321 16.4804 10.6764 16.6522C10.5798 16.7595 10.5583 16.8884 10.5476 17.028C10.5315 17.2535 10.612 17.4575 10.6872 17.6669C10.7677 17.887 10.8107 18.1125 10.7892 18.3541C10.7677 18.5581 10.6872 18.73 10.5476 18.8749C10.4187 19.0145 10.263 19.1165 10.0966 19.1971C10.1879 19.0682 10.2845 18.9447 10.3704 18.8105C10.4563 18.6763 10.5154 18.5259 10.5583 18.3702C10.1181 19.1273 9.46843 19.5085 8.58792 19.4977C9.17851 19.2722 9.48991 18.8695 9.5436 18.2682Z" fill="url(#paint2_linear_122_4469)"/>
<path d="M8.44801 20.1095C8.35137 20.1793 8.25473 20.2169 8.15809 20.2491C7.92722 20.3135 7.70173 20.3081 7.46549 20.2706C7.14872 20.2169 6.85343 20.0934 6.5474 19.986C6.27895 19.8894 6.01051 19.7981 5.74206 19.7229C5.53804 19.6639 5.32865 19.6478 5.12463 19.7122C4.84007 19.7981 4.6629 20.0021 4.55015 20.2706C4.53941 20.292 4.53404 20.3135 4.5233 20.335C4.51794 20.3565 4.51257 20.3726 4.49646 20.394C4.50183 20.3511 4.50183 20.3028 4.51257 20.2598C4.57163 20.0236 4.68437 19.8196 4.88303 19.6746C5.06557 19.5404 5.26959 19.4867 5.48972 19.4921C5.8387 19.4974 6.16084 19.6102 6.48297 19.7337C6.789 19.8518 7.08966 19.986 7.40106 20.0988C7.6534 20.19 7.92185 20.2383 8.1903 20.19C8.27084 20.1632 8.35137 20.1363 8.44801 20.1095Z" fill="url(#paint3_linear_122_4469)"/>
<path d="M7.99216 19.9915C7.51432 19.9808 7.09018 19.8465 6.75193 19.4976C6.52107 19.256 6.39221 18.966 6.39221 18.6278C6.39221 18.5204 6.41906 18.4184 6.43516 18.311C6.43516 18.2949 6.4459 18.2842 6.46201 18.2734C6.46738 18.3379 6.46738 18.3969 6.47275 18.4614C6.49959 18.8318 6.66066 19.1432 6.92374 19.4009C7.19218 19.664 7.51432 19.8304 7.86867 19.9539C7.91163 19.9647 7.94921 19.9808 7.99216 19.9915Z" fill="url(#paint4_linear_122_4469)"/>
<path d="M10.7568 18.7617C10.7407 18.9013 10.6816 19.0194 10.6011 19.1322C10.44 19.3469 10.2199 19.4812 9.97294 19.5778C9.58101 19.7281 9.17297 19.7765 8.75419 19.7496C8.6307 19.7442 8.51259 19.7228 8.3891 19.7013C8.49111 19.6959 8.59312 19.6959 8.69513 19.6905C9.11391 19.6691 9.52732 19.5993 9.91925 19.4382C10.1662 19.3362 10.3917 19.202 10.5743 18.998C10.6333 18.9335 10.6763 18.8637 10.73 18.7939C10.7407 18.7832 10.7461 18.7725 10.7568 18.7617Z" fill="url(#paint5_linear_122_4469)"/>
<path d="M9.1299 19.5191C9.02789 19.5406 8.93124 19.5728 8.82923 19.5889C8.58226 19.6265 8.34066 19.6104 8.1098 19.4976C7.88967 19.3902 7.73934 19.2292 7.70712 18.9768C7.66954 18.6869 7.86282 18.4399 8.14201 18.4238C8.21717 18.4185 8.28697 18.4346 8.3514 18.4829C8.31382 18.4775 8.27623 18.4668 8.23865 18.4668C7.95946 18.4614 7.77692 18.6923 7.83061 18.9715C7.86819 19.1701 7.99168 19.299 8.16348 19.3902C8.41583 19.5191 8.68427 19.5406 8.96346 19.5191C9.01715 19.5137 9.07084 19.5084 9.12453 19.503C9.12989 19.5084 9.1299 19.5137 9.1299 19.5191Z" fill="url(#paint6_linear_122_4469)"/>
<path d="M9.77958 19.7549C9.09773 20.0609 8.42124 20.0609 7.73938 19.7388C8.42124 19.8676 9.09773 19.8784 9.77958 19.7549Z" fill="url(#paint7_linear_122_4469)"/>
<path d="M7.48676 13.2319C7.56192 13.2588 7.62098 13.3125 7.6693 13.3662C7.79279 13.5058 7.85721 13.6722 7.88406 13.8547C7.93775 14.2306 7.87332 14.5849 7.70688 14.9178C7.70152 14.9232 7.69615 14.9339 7.68541 14.9393C7.68541 14.9232 7.68541 14.907 7.69078 14.8909C7.70689 14.6977 7.73373 14.5044 7.74447 14.3057C7.76057 14.0749 7.74983 13.8386 7.68541 13.6131C7.64782 13.4896 7.5995 13.3769 7.52434 13.2749C7.50823 13.2641 7.49749 13.248 7.48676 13.2319Z" fill="url(#paint8_linear_122_4469)"/>
<path d="M7.82487 19.642C7.47588 19.4756 7.21817 19.234 7.16985 18.826C7.14301 18.638 7.2128 18.4072 7.33092 18.2783C7.32555 18.2944 7.32555 18.3052 7.32555 18.3159C7.20743 18.6327 7.26113 18.928 7.4383 19.2072C7.54031 19.3682 7.66917 19.4971 7.81413 19.6152C7.8195 19.6206 7.83023 19.6259 7.8356 19.6367C7.83023 19.6367 7.83024 19.6367 7.82487 19.642Z" fill="url(#paint9_linear_122_4469)"/>
<path d="M8.2706 19.2934C8.09342 19.2773 7.95383 19.1055 7.98067 18.9337C8.00215 18.778 8.14174 18.6706 8.29207 18.6975C8.15785 18.7512 8.08268 18.8478 8.08805 18.9874C8.08805 19.1163 8.16322 19.2075 8.2706 19.2934Z" fill="url(#paint10_linear_122_4469)"/>
<path d="M33.2548 18.2682C33.2226 18.3595 33.185 18.4508 33.1528 18.542C33.1475 18.542 33.1421 18.542 33.1421 18.542C33.0884 18.279 32.981 18.0427 32.7341 17.8978C32.7341 17.8924 32.7394 17.887 32.7394 17.8817C32.7985 17.887 32.8629 17.8924 32.922 17.9031C32.922 17.8978 32.9273 17.8924 32.9273 17.8817C32.9005 17.8709 32.879 17.8656 32.8522 17.8602C32.6374 17.8065 32.4173 17.8172 32.1972 17.8494C32.02 17.8763 31.8482 17.9139 31.6764 17.9515C31.3166 18.0212 31.0375 17.8978 30.8227 17.6132C30.812 17.5971 30.8066 17.581 30.7905 17.5595C30.9677 17.5756 31.1287 17.5971 31.2952 17.6132C31.2952 17.6078 31.3005 17.6025 31.3005 17.5971C30.9999 17.5219 30.7851 17.3609 30.6992 17.0548C30.7046 17.0495 30.7046 17.0441 30.71 17.0387C30.7959 17.0871 30.8871 17.13 30.973 17.1783C30.7207 16.9099 30.6509 16.5877 30.6777 16.2334C30.7475 16.3247 30.8066 16.4213 30.8979 16.4804C30.8549 16.3461 30.8066 16.2119 30.769 16.0723C30.7368 15.9327 30.7368 15.7878 30.8066 15.6535C30.8281 15.8039 30.8818 15.9327 30.973 16.0508C30.8764 15.7287 30.8871 15.4173 31.0214 15.1059C31.0375 15.0683 31.0643 15.0361 31.0965 15.0093C31.0482 15.1972 31.0428 15.3797 31.1019 15.5676C31.1073 15.5623 31.1126 15.5569 31.118 15.5515C31.1502 15.4119 31.2361 15.3046 31.3274 15.1972C31.4026 15.1113 31.467 15.02 31.5314 14.9287C31.5583 14.8911 31.569 14.8482 31.5958 14.8106C31.5851 14.9395 31.569 15.0683 31.5529 15.2079C31.6656 14.9985 31.7247 14.7891 31.7462 14.5636C31.7515 14.5636 31.7569 14.5636 31.7623 14.5636C31.773 14.6066 31.7837 14.6549 31.7945 14.6979C31.7999 14.7462 31.8052 14.7945 31.8106 14.8428C31.9126 14.4885 31.8965 14.1234 31.8428 13.7637C31.8482 13.7637 31.8535 13.7583 31.8535 13.7583C31.8697 13.7798 31.8858 13.8013 31.9019 13.8227C32.0146 13.9999 32.0683 14.1986 32.0898 14.4026C32.122 14.7032 32.0737 14.9932 31.9931 15.2777C31.9448 15.4549 31.8804 15.6267 31.8213 15.8039C31.816 15.8146 31.816 15.8253 31.8106 15.8361C31.9019 15.7126 31.9931 15.5891 32.1542 15.5408C32.0307 15.6858 31.9448 15.8468 31.8911 16.0401C31.9502 15.9918 32.0039 15.9542 32.0576 15.9113C32.0629 15.9166 32.0683 15.9166 32.0683 15.922C32.0576 15.9542 32.0522 15.9864 32.0415 16.0186C31.9878 16.2173 31.9556 16.4213 31.9931 16.6307C32.0092 16.7327 32.0468 16.824 32.1166 16.9045C32.2133 17.0119 32.3367 17.0441 32.471 16.9904C32.5945 16.9475 32.7179 16.8938 32.8414 16.8454C32.9649 16.7971 33.0884 16.7918 33.2119 16.8454C33.2387 16.8562 33.2548 16.8508 33.2656 16.8186C33.3998 16.5126 33.5985 16.2602 33.8615 16.0562C33.8937 16.0347 33.8884 16.0133 33.8723 15.9864C33.8293 15.9166 33.8025 15.8468 33.824 15.7663C33.8347 15.7287 33.8562 15.6965 33.8723 15.6643C33.8776 15.6643 33.883 15.6696 33.8884 15.6696C33.8884 15.6858 33.8884 15.6965 33.8884 15.7126C33.8884 15.8146 33.9474 15.8898 34.0494 15.9005C34.1246 15.9059 34.1998 15.9005 34.2696 15.9005C34.4092 15.9005 34.5434 15.9166 34.6722 15.981C34.7635 16.0294 34.8333 16.0992 34.8709 16.1958C34.8816 16.228 34.9031 16.2388 34.93 16.2495C34.9783 16.2602 35.0266 16.2763 35.0695 16.2978C35.1125 16.3193 35.134 16.3569 35.1232 16.4159C35.0857 16.3945 35.0534 16.3784 35.0159 16.3569C35.0266 16.4159 34.9944 16.3998 34.9675 16.3998C34.742 16.4106 34.5434 16.4804 34.3877 16.6522C34.291 16.7595 34.2696 16.8884 34.2588 17.028C34.2427 17.2535 34.3233 17.4575 34.3984 17.6669C34.479 17.887 34.5219 18.1125 34.5004 18.3541C34.479 18.5581 34.3984 18.73 34.2588 18.8749C34.13 19.0145 33.9743 19.1165 33.8078 19.1971C33.8991 19.0682 33.9958 18.9447 34.0817 18.8105C34.1676 18.6763 34.2266 18.5259 34.2696 18.3702C33.8293 19.1273 33.1797 19.5085 32.2992 19.4977C32.8898 19.2722 33.2012 18.8695 33.2548 18.2682Z" fill="url(#paint11_linear_122_4469)"/>
<path d="M32.1599 20.1095C32.0633 20.1793 31.9666 20.2169 31.87 20.2491C31.6391 20.3135 31.4136 20.3081 31.1774 20.2706C30.8606 20.2169 30.5653 20.0934 30.2593 19.986C29.9909 19.8894 29.7224 19.7981 29.454 19.7229C29.25 19.6639 29.0406 19.6478 28.8365 19.7122C28.552 19.7981 28.3748 20.0021 28.2621 20.2706C28.2513 20.292 28.246 20.3135 28.2352 20.335C28.2298 20.3565 28.2245 20.3726 28.2084 20.394C28.2137 20.3511 28.2137 20.3028 28.2245 20.2598C28.2835 20.0236 28.3963 19.8196 28.5949 19.6746C28.7775 19.5404 28.9815 19.4867 29.2016 19.4921C29.5506 19.4974 29.8728 19.6102 30.1949 19.7337C30.5009 19.8518 30.8016 19.986 31.113 20.0988C31.3653 20.19 31.6338 20.2383 31.9022 20.19C31.9827 20.1632 32.0633 20.1363 32.1599 20.1095Z" fill="url(#paint12_linear_122_4469)"/>
<path d="M31.7041 19.9915C31.2262 19.9808 30.8021 19.8465 30.4638 19.4976C30.233 19.256 30.1041 18.966 30.1041 18.6278C30.1041 18.5204 30.131 18.4184 30.1471 18.311C30.1471 18.2949 30.1578 18.2842 30.1739 18.2734C30.1793 18.3379 30.1793 18.3969 30.1847 18.4614C30.2115 18.8318 30.3726 19.1432 30.6357 19.4009C30.9041 19.664 31.2262 19.8304 31.5806 19.9539C31.6235 19.9647 31.6611 19.9808 31.7041 19.9915Z" fill="url(#paint13_linear_122_4469)"/>
<path d="M34.4687 18.7617C34.4526 18.9013 34.3936 19.0194 34.313 19.1322C34.152 19.3469 33.9318 19.4812 33.6849 19.5778C33.2929 19.7281 32.8849 19.7765 32.4661 19.7496C32.3426 19.7442 32.2245 19.7228 32.101 19.7013C32.203 19.6959 32.305 19.6959 32.407 19.6905C32.8258 19.6691 33.2392 19.5993 33.6312 19.4382C33.8781 19.3362 34.1036 19.202 34.2862 18.998C34.3452 18.9335 34.3882 18.8637 34.4419 18.7939C34.4526 18.7832 34.458 18.7725 34.4687 18.7617Z" fill="url(#paint14_linear_122_4469)"/>
<path d="M32.8418 19.5191C32.7398 19.5406 32.6432 19.5728 32.5411 19.5889C32.2942 19.6265 32.0526 19.6104 31.8217 19.4976C31.6016 19.3902 31.4513 19.2292 31.419 18.9768C31.3815 18.6869 31.5747 18.4399 31.8539 18.4238C31.9291 18.4185 31.9989 18.4346 32.0633 18.4829C32.0257 18.4775 31.9881 18.4668 31.9506 18.4668C31.6714 18.4614 31.4888 18.6923 31.5425 18.9715C31.5801 19.1701 31.7036 19.299 31.8754 19.3902C32.1277 19.5191 32.3962 19.5406 32.6754 19.5191C32.7291 19.5137 32.7827 19.5084 32.8364 19.503C32.8418 19.5084 32.8418 19.5137 32.8418 19.5191Z" fill="url(#paint15_linear_122_4469)"/>
<path d="M33.4915 19.7549C32.8096 20.0609 32.1332 20.0609 31.4513 19.7388C32.1332 19.8676 32.8096 19.8784 33.4915 19.7549Z" fill="url(#paint16_linear_122_4469)"/>
<path d="M31.1993 13.2319C31.2744 13.2588 31.3335 13.3125 31.3818 13.3662C31.5053 13.5058 31.5697 13.6722 31.5966 13.8547C31.6503 14.2306 31.5858 14.5849 31.4194 14.9178C31.414 14.9232 31.4087 14.9339 31.3979 14.9393C31.3979 14.9232 31.3979 14.907 31.4033 14.8909C31.4194 14.6977 31.4463 14.5044 31.457 14.3057C31.4731 14.0749 31.4624 13.8386 31.3979 13.6131C31.3603 13.4896 31.312 13.3769 31.2369 13.2749C31.2208 13.2641 31.21 13.248 31.1993 13.2319Z" fill="url(#paint17_linear_122_4469)"/>
<path d="M31.5368 19.642C31.1878 19.4756 30.9301 19.234 30.8818 18.826C30.8549 18.638 30.9247 18.4072 31.0428 18.2783C31.0375 18.2944 31.0375 18.3052 31.0375 18.3159C30.9193 18.6327 30.973 18.928 31.1502 19.2072C31.2522 19.3682 31.3811 19.4971 31.526 19.6152C31.5314 19.6206 31.5421 19.6259 31.5475 19.6367C31.5421 19.6367 31.5421 19.6367 31.5368 19.642Z" fill="url(#paint18_linear_122_4469)"/>
<path d="M31.9825 19.2934C31.8053 19.2773 31.6657 19.1055 31.6926 18.9337C31.7141 18.778 31.8537 18.6706 32.004 18.6975C31.8698 18.7512 31.7946 18.8478 31.8 18.9874C31.8 19.1163 31.8751 19.2075 31.9825 19.2934Z" fill="url(#paint19_linear_122_4469)"/>
<g filter="url(#filter2_d_122_4469)">
<rect x="27.012" y="32.7549" width="15.0281" height="30.7553" rx="3.61132" transform="rotate(180 27.012 32.7549)" fill="url(#paint20_linear_122_4469)"/>
</g>
<path d="M21.7456 17.9858C21.6993 18.1172 21.6452 18.2486 21.5988 18.38C21.5911 18.38 21.5833 18.38 21.5833 18.38C21.506 18.0013 21.3515 17.6612 20.9959 17.4525C20.9959 17.4448 21.0037 17.4371 21.0037 17.4293C21.0887 17.4371 21.1814 17.4448 21.2664 17.4603C21.2664 17.4525 21.2742 17.4448 21.2742 17.4293C21.2355 17.4139 21.2046 17.4062 21.166 17.3984C20.8568 17.3211 20.5399 17.3366 20.2231 17.383C19.968 17.4216 19.7207 17.4757 19.4734 17.5298C18.9555 17.6303 18.5536 17.4525 18.2445 17.0429C18.229 17.0197 18.2213 16.9965 18.1981 16.9656C18.4532 16.9888 18.685 17.0197 18.9246 17.0429C18.9246 17.0352 18.9324 17.0274 18.9324 17.0197C18.4995 16.9115 18.1904 16.6796 18.0667 16.2391C18.0745 16.2314 18.0745 16.2237 18.0822 16.2159C18.2059 16.2855 18.3372 16.3473 18.4609 16.4169C18.0977 16.0304 17.9972 15.5667 18.0358 15.0566C18.1363 15.188 18.2213 15.3271 18.3527 15.4121C18.2909 15.2189 18.2213 15.0257 18.1672 14.8247C18.1208 14.6238 18.1208 14.4151 18.2213 14.2219C18.2522 14.4383 18.3295 14.6238 18.4609 14.7938C18.3218 14.3301 18.3372 13.8818 18.5305 13.4336C18.5536 13.3795 18.5923 13.3331 18.6387 13.2945C18.5691 13.565 18.5614 13.8277 18.6464 14.0982C18.6541 14.0905 18.6618 14.0828 18.6696 14.0751C18.716 13.8741 18.8396 13.7195 18.971 13.565C19.0792 13.4413 19.1719 13.3099 19.2647 13.1785C19.3033 13.1244 19.3188 13.0626 19.3574 13.0085C19.342 13.194 19.3188 13.3795 19.2956 13.5804C19.4579 13.279 19.5429 12.9776 19.5738 12.653C19.5816 12.653 19.5893 12.653 19.597 12.653C19.6125 12.7148 19.6279 12.7844 19.6434 12.8462C19.6511 12.9157 19.6589 12.9853 19.6666 13.0549C19.8134 12.5448 19.7902 12.0192 19.713 11.5014C19.7207 11.5014 19.7284 11.4937 19.7284 11.4937C19.7516 11.5246 19.7748 11.5555 19.798 11.5864C19.9603 11.8414 20.0376 12.1274 20.0685 12.4211C20.1149 12.8539 20.0453 13.2713 19.9294 13.6809C19.8598 13.9359 19.7671 14.1833 19.682 14.4383C19.6743 14.4538 19.6743 14.4692 19.6666 14.4847C19.798 14.3069 19.9294 14.1292 20.1612 14.0596C19.9835 14.2683 19.8598 14.5001 19.7825 14.7784C19.8675 14.7088 19.9448 14.6547 20.0221 14.5929C20.0298 14.6006 20.0376 14.6006 20.0376 14.6083C20.0221 14.6547 20.0144 14.7011 19.9989 14.7475C19.9216 15.0334 19.8753 15.3271 19.9294 15.6285C19.9526 15.7754 20.0067 15.9068 20.1071 16.0227C20.2462 16.1773 20.424 16.2237 20.6172 16.1464C20.795 16.0845 20.9728 16.0072 21.1505 15.9377C21.3283 15.8681 21.506 15.8604 21.6838 15.9377C21.7224 15.9531 21.7456 15.9454 21.7611 15.899C21.9543 15.4585 22.2403 15.0953 22.619 14.8016C22.6653 14.7706 22.6576 14.7397 22.6344 14.7011C22.5726 14.6006 22.534 14.5001 22.5649 14.3842C22.5803 14.3301 22.6112 14.2837 22.6344 14.2374C22.6422 14.2374 22.6499 14.2451 22.6576 14.2451C22.6576 14.2683 22.6576 14.2837 22.6576 14.3069C22.6576 14.4538 22.7426 14.562 22.8895 14.5774C22.9977 14.5852 23.1059 14.5774 23.2064 14.5774C23.4073 14.5774 23.6005 14.6006 23.786 14.6934C23.9174 14.7629 24.0179 14.8634 24.072 15.0025C24.0874 15.0489 24.1184 15.0643 24.157 15.0798C24.2266 15.0953 24.2961 15.1184 24.3579 15.1494C24.4198 15.1803 24.4507 15.2344 24.4352 15.3194C24.3811 15.2885 24.3348 15.2653 24.2807 15.2344C24.2961 15.3194 24.2497 15.2962 24.2111 15.2962C23.8865 15.3117 23.6005 15.4121 23.3764 15.6595C23.2373 15.814 23.2064 15.9995 23.1909 16.2005C23.1677 16.5251 23.2836 16.8188 23.3919 17.1202C23.5078 17.4371 23.5696 17.7617 23.5387 18.1095C23.5078 18.4032 23.3918 18.6505 23.1909 18.8592C23.0054 19.0601 22.7813 19.207 22.5417 19.3229C22.6731 19.1374 22.8122 18.9596 22.9359 18.7664C23.0595 18.5732 23.1445 18.3568 23.2064 18.1327C22.5726 19.2224 21.6374 19.7712 20.3699 19.7557C21.2201 19.4311 21.6683 18.8514 21.7456 17.9858Z" fill="url(#paint21_linear_122_4469)"/>
<path d="M20.1687 20.6369C20.0296 20.7374 19.8905 20.7915 19.7514 20.8378C19.419 20.9306 19.0944 20.9229 18.7544 20.8688C18.2984 20.7915 17.8733 20.6137 17.4327 20.4591C17.0463 20.32 16.6599 20.1886 16.2734 20.0804C15.9797 19.9954 15.6783 19.9722 15.3846 20.065C14.975 20.1886 14.7199 20.4823 14.5576 20.8688C14.5422 20.8997 14.5344 20.9306 14.519 20.9615C14.5113 20.9924 14.5035 21.0156 14.4803 21.0465C14.4881 20.9847 14.4881 20.9151 14.5035 20.8533C14.5886 20.5132 14.7509 20.2195 15.0368 20.0109C15.2996 19.8176 15.5933 19.7404 15.9102 19.7481C16.4125 19.7558 16.8763 19.9181 17.34 20.0959C17.7805 20.2659 18.2133 20.4591 18.6616 20.6214C19.0249 20.7528 19.4113 20.8224 19.7977 20.7528C19.9137 20.7142 20.0296 20.6755 20.1687 20.6369Z" fill="url(#paint22_linear_122_4469)"/>
<path d="M19.5123 20.4664C18.8244 20.4509 18.2138 20.2577 17.7269 19.7553C17.3946 19.4075 17.2091 18.9902 17.2091 18.5033C17.2091 18.3487 17.2477 18.2018 17.2709 18.0473C17.2709 18.0241 17.2864 18.0086 17.3096 17.9932C17.3173 18.0859 17.3173 18.1709 17.325 18.2637C17.3637 18.797 17.5955 19.2452 17.9743 19.6162C18.3607 19.9949 18.8244 20.2345 19.3345 20.4123C19.3963 20.4277 19.4504 20.4509 19.5123 20.4664Z" fill="url(#paint23_linear_122_4469)"/>
<path d="M23.4919 18.6968C23.4688 18.8977 23.3837 19.0678 23.2678 19.2301C23.0359 19.5392 22.7191 19.7324 22.3635 19.8715C21.7993 20.088 21.212 20.1575 20.6091 20.1189C20.4314 20.1111 20.2613 20.0802 20.0836 20.0493C20.2304 20.0416 20.3772 20.0416 20.5241 20.0339C21.1269 20.0029 21.7221 19.9025 22.2863 19.6706C22.6418 19.5238 22.9664 19.3305 23.2292 19.0368C23.3142 18.9441 23.376 18.8436 23.4533 18.7432C23.4688 18.7277 23.4765 18.7122 23.4919 18.6968Z" fill="url(#paint24_linear_122_4469)"/>
<path d="M21.1501 19.7866C21.0033 19.8175 20.8642 19.8639 20.7173 19.8871C20.3618 19.9412 20.014 19.918 19.6817 19.7557C19.3648 19.6011 19.1484 19.3692 19.102 19.006C19.0479 18.5886 19.3261 18.2331 19.728 18.2099C19.8362 18.2022 19.9367 18.2254 20.0294 18.2949C19.9753 18.2872 19.9212 18.2717 19.8671 18.2717C19.4652 18.264 19.2025 18.5964 19.2798 18.9982C19.3339 19.2842 19.5116 19.4697 19.7589 19.6011C20.1222 19.7866 20.5086 19.8175 20.9105 19.7866C20.9878 19.7789 21.0651 19.7711 21.1424 19.7634C21.1501 19.7711 21.1501 19.7789 21.1501 19.7866Z" fill="url(#paint25_linear_122_4469)"/>
<path d="M22.0857 20.1267C21.1041 20.5672 20.1303 20.5672 19.1487 20.1035C20.1303 20.289 21.1041 20.3045 22.0857 20.1267Z" fill="url(#paint26_linear_122_4469)"/>
<path d="M18.7853 10.7363C18.8935 10.775 18.9786 10.8523 19.0481 10.9295C19.2259 11.1305 19.3186 11.3701 19.3573 11.6329C19.4346 12.1739 19.3418 12.684 19.1022 13.1632C19.0945 13.1709 19.0868 13.1863 19.0713 13.1941C19.0713 13.1709 19.0713 13.1477 19.079 13.1245C19.1022 12.8463 19.1409 12.568 19.1563 12.2821C19.1795 11.9497 19.164 11.6097 19.0713 11.2851C19.0172 11.1073 18.9476 10.945 18.8394 10.7982C18.8163 10.7827 18.8008 10.7595 18.7853 10.7363Z" fill="url(#paint27_linear_122_4469)"/>
<path d="M19.272 19.9646C18.7696 19.725 18.3986 19.3772 18.329 18.7898C18.2904 18.5193 18.3909 18.187 18.5609 18.0015C18.5532 18.0247 18.5532 18.0401 18.5532 18.0556C18.3831 18.5116 18.4604 18.9366 18.7155 19.3385C18.8623 19.5704 19.0478 19.7559 19.2565 19.9259C19.2642 19.9337 19.2797 19.9414 19.2874 19.9568C19.2797 19.9568 19.2797 19.9568 19.272 19.9646Z" fill="url(#paint28_linear_122_4469)"/>
<path d="M19.9139 19.462C19.6588 19.4388 19.4579 19.1915 19.4965 18.9441C19.5275 18.72 19.7284 18.5654 19.9448 18.6041C19.7516 18.6814 19.6434 18.8205 19.6511 19.0214C19.6511 19.2069 19.7593 19.3383 19.9139 19.462Z" fill="url(#paint29_linear_122_4469)"/>
<defs>
<filter id="filter0_d_122_4469" x="0.178507" y="5.74414" width="15.0119" height="26.9098" filterUnits="userSpaceOnUse" color-interpolation-filters="sRGB">
<feFlood flood-opacity="0" result="BackgroundImageFix"/>
<feColorMatrix in="SourceAlpha" type="matrix" values="0 0 0 0 0 0 0 0 0 0 0 0 0 0 0 0 0 0 127 0" result="hardAlpha"/>
<feOffset dy="1.82137"/>
<feGaussianBlur stdDeviation="0.910685"/>
<feComposite in2="hardAlpha" operator="out"/>
<feColorMatrix type="matrix" values="0 0 0 0 0 0 0 0 0 0 0 0 0 0 0 0 0 0 0.25 0"/>
<feBlend mode="normal" in2="BackgroundImageFix" result="effect1_dropShadow_122_4469"/>
<feBlend mode="normal" in="SourceGraphic" in2="effect1_dropShadow_122_4469" result="shape"/>
</filter>
<filter id="filter1_d_122_4469" x="23.8913" y="5.74414" width="15.0119" height="26.9098" filterUnits="userSpaceOnUse" color-interpolation-filters="sRGB">
<feFlood flood-opacity="0" result="BackgroundImageFix"/>
<feColorMatrix in="SourceAlpha" type="matrix" values="0 0 0 0 0 0 0 0 0 0 0 0 0 0 0 0 0 0 127 0" result="hardAlpha"/>
<feOffset dy="1.82137"/>
<feGaussianBlur stdDeviation="0.910685"/>
<feComposite in2="hardAlpha" operator="out"/>
<feColorMatrix type="matrix" values="0 0 0 0 0 0 0 0 0 0 0 0 0 0 0 0 0 0 0.25 0"/>
<feBlend mode="normal" in2="BackgroundImageFix" result="effect1_dropShadow_122_4469"/>
<feBlend mode="normal" in="SourceGraphic" in2="effect1_dropShadow_122_4469" result="shape"/>
</filter>
<filter id="filter2_d_122_4469" x="10.6806" y="0.696241" width="17.6347" height="33.3619" filterUnits="userSpaceOnUse" color-interpolation-filters="sRGB">
<feFlood flood-opacity="0" result="BackgroundImageFix"/>
<feColorMatrix in="SourceAlpha" type="matrix" values="0 0 0 0 0 0 0 0 0 0 0 0 0 0 0 0 0 0 127 0" result="hardAlpha"/>
<feOffset/>
<feGaussianBlur stdDeviation="0.651636"/>
<feComposite in2="hardAlpha" operator="out"/>
<feColorMatrix type="matrix" values="0 0 0 0 0 0 0 0 0 0 0 0 0 0 0 0 0 0 0.55 0"/>
<feBlend mode="normal" in2="BackgroundImageFix" result="effect1_dropShadow_122_4469"/>
<feBlend mode="normal" in="SourceGraphic" in2="effect1_dropShadow_122_4469" result="shape"/>
</filter>
<linearGradient id="paint0_linear_122_4469" x1="19.0536" y1="29.0112" x2="19.0536" y2="52.2784" gradientUnits="userSpaceOnUse">
<stop stop-color="#187941"/>
<stop offset="1" stop-color="#025522"/>
</linearGradient>
<linearGradient id="paint1_linear_122_4469" x1="42.7664" y1="29.0112" x2="42.7664" y2="52.2784" gradientUnits="userSpaceOnUse">
<stop stop-color="#187941"/>
<stop offset="1" stop-color="#025522"/>
</linearGradient>
<linearGradient id="paint2_linear_122_4469" x1="12.2225" y1="17.015" x2="6.76781" y2="17.1824" gradientUnits="userSpaceOnUse">
<stop stop-color="#F98116"/>
<stop offset="0.035" stop-color="#F98317"/>
<stop offset="0.49" stop-color="#FDDD54"/>
<stop offset="1" stop-color="#F98116"/>
</linearGradient>
<linearGradient id="paint3_linear_122_4469" x1="9.16471" y1="20.0037" x2="4.46159" y2="20.8186" gradientUnits="userSpaceOnUse">
<stop stop-color="#F98116"/>
<stop offset="0.035" stop-color="#F98317"/>
<stop offset="0.49" stop-color="#FDDD54"/>
<stop offset="1" stop-color="#F98116"/>
</linearGradient>
<linearGradient id="paint4_linear_122_4469" x1="8.28235" y1="19.2483" x2="6.32358" y2="19.3204" gradientUnits="userSpaceOnUse">
<stop stop-color="#F98116"/>
<stop offset="0.035" stop-color="#F98317"/>
<stop offset="0.49" stop-color="#FDDD54"/>
<stop offset="1" stop-color="#F98116"/>
</linearGradient>
<linearGradient id="paint5_linear_122_4469" x1="11.1862" y1="19.3262" x2="8.30911" y2="19.5972" gradientUnits="userSpaceOnUse">
<stop stop-color="#F98116"/>
<stop offset="0.035" stop-color="#F98317"/>
<stop offset="0.49" stop-color="#FDDD54"/>
<stop offset="1" stop-color="#F98116"/>
</linearGradient>
<linearGradient id="paint6_linear_122_4469" x1="9.3888" y1="19.0948" x2="7.64282" y2="19.1781" gradientUnits="userSpaceOnUse">
<stop stop-color="#F98116"/>
<stop offset="0.035" stop-color="#F98317"/>
<stop offset="0.49" stop-color="#FDDD54"/>
<stop offset="1" stop-color="#F98116"/>
</linearGradient>
<linearGradient id="paint7_linear_122_4469" x1="10.1496" y1="19.877" x2="7.89587" y2="20.6237" gradientUnits="userSpaceOnUse">
<stop stop-color="#F98116"/>
<stop offset="0.035" stop-color="#F98317"/>
<stop offset="0.49" stop-color="#FDDD54"/>
<stop offset="1" stop-color="#F98116"/>
</linearGradient>
<linearGradient id="paint8_linear_122_4469" x1="7.97797" y1="14.2007" x2="7.46827" y2="14.2056" gradientUnits="userSpaceOnUse">
<stop stop-color="#F98116"/>
<stop offset="0.035" stop-color="#F98317"/>
<stop offset="0.49" stop-color="#FDDD54"/>
<stop offset="1" stop-color="#F98116"/>
</linearGradient>
<linearGradient id="paint9_linear_122_4469" x1="7.95739" y1="19.0521" x2="7.13452" y2="19.0681" gradientUnits="userSpaceOnUse">
<stop stop-color="#F98116"/>
<stop offset="0.035" stop-color="#F98317"/>
<stop offset="0.49" stop-color="#FDDD54"/>
<stop offset="1" stop-color="#F98116"/>
</linearGradient>
<linearGradient id="paint10_linear_122_4469" x1="8.34915" y1="19.0338" x2="7.9635" y2="19.0418" gradientUnits="userSpaceOnUse">
<stop stop-color="#F98116"/>
<stop offset="0.035" stop-color="#F98317"/>
<stop offset="0.49" stop-color="#FDDD54"/>
<stop offset="1" stop-color="#F98116"/>
</linearGradient>
<linearGradient id="paint11_linear_122_4469" x1="35.9337" y1="17.015" x2="30.4791" y2="17.1824" gradientUnits="userSpaceOnUse">
<stop stop-color="#F98116"/>
<stop offset="0.035" stop-color="#F98317"/>
<stop offset="0.49" stop-color="#FDDD54"/>
<stop offset="1" stop-color="#F98116"/>
</linearGradient>
<linearGradient id="paint12_linear_122_4469" x1="32.8766" y1="20.0037" x2="28.1735" y2="20.8186" gradientUnits="userSpaceOnUse">
<stop stop-color="#F98116"/>
<stop offset="0.035" stop-color="#F98317"/>
<stop offset="0.49" stop-color="#FDDD54"/>
<stop offset="1" stop-color="#F98116"/>
</linearGradient>
<linearGradient id="paint13_linear_122_4469" x1="31.9943" y1="19.2483" x2="30.0355" y2="19.3204" gradientUnits="userSpaceOnUse">
<stop stop-color="#F98116"/>
<stop offset="0.035" stop-color="#F98317"/>
<stop offset="0.49" stop-color="#FDDD54"/>
<stop offset="1" stop-color="#F98116"/>
</linearGradient>
<linearGradient id="paint14_linear_122_4469" x1="34.8982" y1="19.3262" x2="32.021" y2="19.5972" gradientUnits="userSpaceOnUse">
<stop stop-color="#F98116"/>
<stop offset="0.035" stop-color="#F98317"/>
<stop offset="0.49" stop-color="#FDDD54"/>
<stop offset="1" stop-color="#F98116"/>
</linearGradient>
<linearGradient id="paint15_linear_122_4469" x1="33.1007" y1="19.0948" x2="31.3547" y2="19.1781" gradientUnits="userSpaceOnUse">
<stop stop-color="#F98116"/>
<stop offset="0.035" stop-color="#F98317"/>
<stop offset="0.49" stop-color="#FDDD54"/>
<stop offset="1" stop-color="#F98116"/>
</linearGradient>
<linearGradient id="paint16_linear_122_4469" x1="33.8615" y1="19.877" x2="31.6078" y2="20.6237" gradientUnits="userSpaceOnUse">
<stop stop-color="#F98116"/>
<stop offset="0.035" stop-color="#F98317"/>
<stop offset="0.49" stop-color="#FDDD54"/>
<stop offset="1" stop-color="#F98116"/>
</linearGradient>
<linearGradient id="paint17_linear_122_4469" x1="31.6905" y1="14.2007" x2="31.1808" y2="14.2056" gradientUnits="userSpaceOnUse">
<stop stop-color="#F98116"/>
<stop offset="0.035" stop-color="#F98317"/>
<stop offset="0.49" stop-color="#FDDD54"/>
<stop offset="1" stop-color="#F98116"/>
</linearGradient>
<linearGradient id="paint18_linear_122_4469" x1="31.6693" y1="19.0521" x2="30.8464" y2="19.0681" gradientUnits="userSpaceOnUse">
<stop stop-color="#F98116"/>
<stop offset="0.035" stop-color="#F98317"/>
<stop offset="0.49" stop-color="#FDDD54"/>
<stop offset="1" stop-color="#F98116"/>
</linearGradient>
<linearGradient id="paint19_linear_122_4469" x1="32.0611" y1="19.0338" x2="31.6754" y2="19.0418" gradientUnits="userSpaceOnUse">
<stop stop-color="#F98116"/>
<stop offset="0.035" stop-color="#F98317"/>
<stop offset="0.49" stop-color="#FDDD54"/>
<stop offset="1" stop-color="#F98116"/>
</linearGradient>
<linearGradient id="paint20_linear_122_4469" x1="34.526" y1="32.7549" x2="34.526" y2="63.5101" gradientUnits="userSpaceOnUse">
<stop stop-color="#187941"/>
<stop offset="1" stop-color="#025522"/>
</linearGradient>
<linearGradient id="paint21_linear_122_4469" x1="25.602" y1="16.1817" x2="17.7498" y2="16.4228" gradientUnits="userSpaceOnUse">
<stop stop-color="#F98116"/>
<stop offset="0.035" stop-color="#F98317"/>
<stop offset="0.49" stop-color="#FDDD54"/>
<stop offset="1" stop-color="#F98116"/>
</linearGradient>
<linearGradient id="paint22_linear_122_4469" x1="21.2004" y1="20.4846" x2="14.4302" y2="21.6577" gradientUnits="userSpaceOnUse">
<stop stop-color="#F98116"/>
<stop offset="0.035" stop-color="#F98317"/>
<stop offset="0.49" stop-color="#FDDD54"/>
<stop offset="1" stop-color="#F98116"/>
</linearGradient>
<linearGradient id="paint23_linear_122_4469" x1="19.93" y1="19.3965" x2="17.1103" y2="19.5004" gradientUnits="userSpaceOnUse">
<stop stop-color="#F98116"/>
<stop offset="0.035" stop-color="#F98317"/>
<stop offset="0.49" stop-color="#FDDD54"/>
<stop offset="1" stop-color="#F98116"/>
</linearGradient>
<linearGradient id="paint24_linear_122_4469" x1="24.1101" y1="19.5094" x2="19.9684" y2="19.8994" gradientUnits="userSpaceOnUse">
<stop stop-color="#F98116"/>
<stop offset="0.035" stop-color="#F98317"/>
<stop offset="0.49" stop-color="#FDDD54"/>
<stop offset="1" stop-color="#F98116"/>
</linearGradient>
<linearGradient id="paint25_linear_122_4469" x1="21.5228" y1="19.1758" x2="19.0094" y2="19.2956" gradientUnits="userSpaceOnUse">
<stop stop-color="#F98116"/>
<stop offset="0.035" stop-color="#F98317"/>
<stop offset="0.49" stop-color="#FDDD54"/>
<stop offset="1" stop-color="#F98116"/>
</linearGradient>
<linearGradient id="paint26_linear_122_4469" x1="22.6183" y1="20.3025" x2="19.374" y2="21.3774" gradientUnits="userSpaceOnUse">
<stop stop-color="#F98116"/>
<stop offset="0.035" stop-color="#F98317"/>
<stop offset="0.49" stop-color="#FDDD54"/>
<stop offset="1" stop-color="#F98116"/>
</linearGradient>
<linearGradient id="paint27_linear_122_4469" x1="19.4925" y1="12.1309" x2="18.7587" y2="12.1379" gradientUnits="userSpaceOnUse">
<stop stop-color="#F98116"/>
<stop offset="0.035" stop-color="#F98317"/>
<stop offset="0.49" stop-color="#FDDD54"/>
<stop offset="1" stop-color="#F98116"/>
</linearGradient>
<linearGradient id="paint28_linear_122_4469" x1="19.4627" y1="19.1153" x2="18.2782" y2="19.1384" gradientUnits="userSpaceOnUse">
<stop stop-color="#F98116"/>
<stop offset="0.035" stop-color="#F98317"/>
<stop offset="0.49" stop-color="#FDDD54"/>
<stop offset="1" stop-color="#F98116"/>
</linearGradient>
<linearGradient id="paint29_linear_122_4469" x1="20.027" y1="19.0883" x2="19.4718" y2="19.0998" gradientUnits="userSpaceOnUse">
<stop stop-color="#F98116"/>
<stop offset="0.035" stop-color="#F98317"/>
<stop offset="0.49" stop-color="#FDDD54"/>
<stop offset="1" stop-color="#F98116"/>
</linearGradient>
</defs>
</svg>
