<svg width="16" height="16" viewBox="0 0 16 16" fill="none" xmlns="http://www.w3.org/2000/svg">
<path d="M13.311 2.349H12.528V0.783C12.528 0.575336 12.4455 0.376176 12.2987 0.229335C12.1518 0.0824944 11.9527 0 11.745 0C11.5373 0 11.3382 0.0824944 11.1913 0.229335C11.0445 0.376176 10.962 0.575336 10.962 0.783V2.349H4.698V0.783C4.698 0.575336 4.61551 0.376176 4.46866 0.229335C4.32182 0.0824944 4.12266 0 3.915 0C3.70734 0 3.50818 0.0824944 3.36134 0.229335C3.21449 0.376176 3.132 0.575336 3.132 0.783V2.349H2.349C1.72601 2.349 1.12853 2.59648 0.688006 3.03701C0.247483 3.47753 0 4.07501 0 4.698V5.481H15.66V4.698C15.66 4.07501 15.4125 3.47753 14.972 3.03701C14.5315 2.59648 13.934 2.349 13.311 2.349ZM0 13.311C0 13.934 0.247483 14.5315 0.688006 14.972C1.12853 15.4125 1.72601 15.66 2.349 15.66H13.311C13.934 15.66 14.5315 15.4125 14.972 14.972C15.4125 14.5315 15.66 13.934 15.66 13.311V7.047H0V13.311Z" fill="#11C075"/>
</svg>
