<svg width="34" height="24" viewBox="0 0 34 24" fill="none" xmlns="http://www.w3.org/2000/svg">
<path d="M21.6803 13.6255L18.8781 16.4373C17.7417 17.5776 15.7422 17.6022 14.5813 16.4373L11.7789 13.6255L1.71387 23.7232C2.08852 23.8964 2.5016 23.9998 2.94075 23.9998H30.5186C30.9577 23.9998 31.3707 23.8965 31.7452 23.7232L21.6803 13.6255Z" fill="#2473B3"/>
<path d="M30.5186 0.473633H2.94076C2.50161 0.473633 2.08853 0.577017 1.71401 0.750261L12.4692 11.5411C12.4699 11.5418 12.4707 11.5419 12.4714 11.5427C12.4719 11.5431 12.4722 11.5437 12.4723 11.5444L15.9694 15.053C16.3408 15.4245 17.1186 15.4245 17.4901 15.053L20.9865 11.545C20.9865 11.545 20.9873 11.5434 20.988 11.5427C20.988 11.5427 20.9896 11.5418 20.9903 11.5411L31.7452 0.750195C31.3707 0.576886 30.9577 0.473633 30.5186 0.473633ZM0.312766 2.12124C0.118938 2.51322 0 2.94832 0 3.4144V21.059C0 21.5251 0.118807 21.9602 0.312701 22.3521L10.3951 12.237L0.312766 2.12124ZM33.1466 2.12111L23.0643 12.237L33.1466 22.3523C33.3404 21.9603 33.4594 21.5252 33.4594 21.059V3.4144C33.4594 2.94819 33.3404 2.51308 33.1466 2.12111Z" fill="#2473B3"/>
</svg>
