<svg width="17" height="12" viewBox="0 0 17 12" fill="none" xmlns="http://www.w3.org/2000/svg">
<path d="M11.1306 6.19873L9.80988 7.52396C9.27428 8.06144 8.3319 8.07302 7.78473 7.52396L6.4639 6.19873L1.72009 10.9579C1.89667 11.0396 2.09136 11.0883 2.29835 11.0883H15.2963C15.5032 11.0883 15.6979 11.0397 15.8744 10.958L11.1306 6.19873Z" fill="#3BBA73"/>
<path d="M15.2963 0H2.29839C2.09141 0 1.89671 0.0487268 1.7202 0.13038L6.78929 5.21629C6.78963 5.21663 6.79003 5.21669 6.79037 5.21703C6.79058 5.21725 6.79072 5.21753 6.79077 5.21783L8.43901 6.87152C8.61408 7.04659 8.98067 7.04659 9.15574 6.87152L10.8036 5.21811C10.8036 5.21811 10.804 5.21737 10.8044 5.21703C10.8044 5.21703 10.8051 5.21663 10.8055 5.21629L15.8744 0.130349C15.6979 0.0486652 15.5033 0 15.2963 0ZM1.05977 0.776548C0.968411 0.961291 0.912354 1.16636 0.912354 1.38603V9.70223C0.912354 9.92191 0.968349 10.127 1.05974 10.3117L5.81177 5.54429L1.05977 0.776548ZM16.5349 0.776487L11.783 5.54429L16.5349 10.3118C16.6263 10.127 16.6823 9.92197 16.6823 9.70223V1.38603C16.6823 1.1663 16.6263 0.96123 16.5349 0.776487Z" fill="#3BBA73"/>
</svg>
