<svg width="29" height="30" viewBox="0 0 29 30" fill="none" xmlns="http://www.w3.org/2000/svg">
<path d="M28.3413 18.7744V6.13838C28.3413 4.48273 26.9991 3.14047 25.3434 3.14047C23.6877 3.14047 22.3455 4.48266 22.3455 6.13838V9.24023L14.2226 1.11738C13.2077 0.102476 11.5623 0.102476 10.5475 1.11738C9.53258 2.13227 9.53258 3.77763 10.5475 4.79253L8.69224 2.9373C7.67734 1.9224 6.03192 1.9224 5.01708 2.9373C4.00219 3.9522 4.00219 5.59762 5.01708 6.61246L6.09121 7.68658C5.07631 6.67175 3.43088 6.67175 2.41605 7.68658C1.40115 8.70148 1.40115 10.3469 2.41605 11.3617L5.0667 14.0124C4.0518 12.9975 2.40638 12.9975 1.39155 14.0124C0.376646 15.0273 0.376646 16.6727 1.39155 17.6875L9.57397 25.87C13.7744 30.0704 20.5847 30.0704 24.7851 25.87L25.8392 24.8158C27.5075 23.1477 28.3415 20.9612 28.3415 18.7747C28.3413 18.7747 28.3413 18.7745 28.3413 18.7744Z" fill="#FFD655"/>
<path fill-rule="evenodd" clip-rule="evenodd" d="M15.5839 10.3471C15.5158 10.3472 15.4484 10.3338 15.3855 10.3078C15.3226 10.2817 15.2655 10.2435 15.2174 10.1953L10.1808 5.1588C10.0843 5.06145 10.0303 4.92984 10.0306 4.79277C10.031 4.65571 10.0855 4.52434 10.1825 4.42742C10.2794 4.33051 10.4108 4.27593 10.5478 4.27564C10.6849 4.27534 10.8165 4.32936 10.9138 4.42586L15.9504 9.46235C16.0229 9.53483 16.0722 9.62718 16.0922 9.72771C16.1122 9.82825 16.102 9.93245 16.0627 10.0272C16.0235 10.1219 15.9571 10.2028 15.8719 10.2598C15.7866 10.3167 15.6864 10.3471 15.5839 10.3471ZM11.9679 14.0815C11.8998 14.0816 11.8323 14.0682 11.7694 14.0421C11.7065 14.0161 11.6494 13.9779 11.6013 13.9297L5.72449 8.05285C5.628 7.9555 5.574 7.82389 5.57431 7.68682C5.57461 7.54975 5.6292 7.41839 5.72613 7.32147C5.82305 7.22455 5.95442 7.16998 6.09149 7.16968C6.22856 7.16939 6.36017 7.2234 6.45751 7.3199L12.3343 13.1967C12.4068 13.2691 12.4562 13.3615 12.4762 13.462C12.4962 13.5626 12.486 13.6668 12.4467 13.7615C12.4075 13.8562 12.3411 13.9372 12.2558 13.9942C12.1706 14.0511 12.0704 14.0815 11.9679 14.0815Z" fill="#E6A21B"/>
<path d="M8.94343 18.4074C8.87534 18.4075 8.80791 18.3941 8.74501 18.3681C8.68211 18.342 8.62497 18.3038 8.57689 18.2556L4.69999 14.3788C4.6035 14.2814 4.5495 14.1498 4.54981 14.0127C4.55011 13.8757 4.6047 13.7443 4.70163 13.6474C4.79856 13.5505 4.92993 13.4959 5.067 13.4956C5.20406 13.4953 5.33567 13.5493 5.43301 13.6458L9.3099 17.5227C9.38238 17.5951 9.43174 17.6875 9.45173 17.788C9.47173 17.8886 9.46147 17.9928 9.42224 18.0875C9.38301 18.1822 9.31659 18.2631 9.23136 18.3201C9.14614 18.377 9.04594 18.4074 8.94343 18.4074Z" fill="#E6A21B"/>
<path d="M19.7469 20.2227C19.5465 20.2227 19.3558 20.1059 19.271 19.9104C18.1759 17.3838 18.3782 14.4753 19.8123 12.1304C19.8478 12.0723 19.8944 12.0218 19.9494 11.9817C20.0045 11.9417 20.0668 11.9128 20.133 11.8969C20.1992 11.8809 20.2679 11.8782 20.3351 11.8888C20.4023 11.8993 20.4668 11.9231 20.5249 11.9586C20.6422 12.0303 20.7261 12.1457 20.7583 12.2793C20.7906 12.4129 20.7684 12.5539 20.6966 12.6711C19.4385 14.7286 19.2611 17.2808 20.2222 19.4981C20.2564 19.577 20.2704 19.6631 20.2631 19.7487C20.2557 19.8344 20.2272 19.9168 20.18 19.9887C20.1329 20.0605 20.0686 20.1195 19.993 20.1604C19.9174 20.2012 19.8328 20.2227 19.7469 20.2227Z" fill="#E6A21B"/>
</svg>
