<svg width="18" height="18" viewBox="0 0 18 18" fill="none" xmlns="http://www.w3.org/2000/svg">
<path d="M15.9262 6.20251H8.41872C7.27497 6.20251 6.34497 7.13626 6.34497 8.28001V15.7838C6.34497 16.9275 7.27497 17.8613 8.41872 17.8613H15.9262C17.07 17.8613 18 16.9275 18 15.7838V8.28001C18 7.13626 17.07 6.20251 15.9262 6.20251ZM9.96372 11.1825C9.20997 11.1825 8.59872 10.5713 8.59872 9.82126C8.59872 9.45924 8.74253 9.11205 8.99852 8.85606C9.25451 8.60008 9.6017 8.45626 9.96372 8.45626C10.7137 8.45626 11.325 9.06751 11.325 9.82126C11.325 10.5713 10.7137 11.1825 9.96372 11.1825ZM14.3812 15.6038C13.6312 15.6038 13.02 14.9925 13.02 14.2425C13.02 13.4888 13.6312 12.8775 14.3812 12.8775C15.135 12.8775 15.7425 13.4888 15.7425 14.2425C15.7425 14.9925 15.135 15.6038 14.3812 15.6038Z" fill="#8B8B8B"/>
<path d="M8.41875 5.4525H11.655V2.07375C11.655 0.93 10.725 0 9.58125 0H2.07375C0.93 0 0 0.93 0 2.07375V9.58125C0 10.725 0.93 11.655 2.07375 11.655H5.595V8.28C5.595 6.72 6.8625 5.4525 8.41875 5.4525ZM8.04 2.25375C8.21876 2.25375 8.39577 2.28896 8.56093 2.35737C8.72608 2.42578 8.87615 2.52605 9.00255 2.65245C9.12895 2.77885 9.22922 2.92892 9.29763 3.09407C9.36604 3.25923 9.40125 3.43624 9.40125 3.615C9.40125 3.79376 9.36604 3.97077 9.29763 4.13593C9.22922 4.30108 9.12895 4.45115 9.00255 4.57755C8.87615 4.70395 8.72608 4.80422 8.56093 4.87263C8.39577 4.94104 8.21876 4.97625 8.04 4.97625C7.28625 4.97625 6.675 4.36875 6.675 3.615C6.675 2.865 7.28625 2.25375 8.04 2.25375ZM3.61875 9.3975C2.865 9.3975 2.25375 8.79 2.25375 8.03625C2.25375 7.2825 2.865 6.675 3.61875 6.675C3.97978 6.675 4.32602 6.81842 4.5813 7.0737C4.83658 7.32899 4.98 7.67522 4.98 8.03625C4.98 8.39728 4.83658 8.74352 4.5813 8.9988C4.32602 9.25408 3.97978 9.3975 3.61875 9.3975ZM3.61875 4.97625C2.865 4.97625 2.25375 4.36875 2.25375 3.615C2.25375 2.865 2.865 2.25375 3.61875 2.25375C3.97978 2.25375 4.32602 2.39717 4.5813 2.65245C4.83658 2.90773 4.98 3.25397 4.98 3.615C4.98 3.97603 4.83658 4.32227 4.5813 4.57755C4.32602 4.83283 3.97978 4.97625 3.61875 4.97625Z" fill="#8B8B8B"/>
</svg>
