<svg width="20" height="20" viewBox="0 0 20 20" fill="none" xmlns="http://www.w3.org/2000/svg">
<path d="M5.02882 19C4.83159 19 4.63577 18.9358 4.46863 18.8097C4.31662 18.6949 4.2003 18.536 4.13416 18.3527C4.06801 18.1695 4.05495 17.97 4.0966 17.779L5.2546 12.4562L1.32742 8.86251C1.18618 8.73391 1.08429 8.56481 1.03443 8.37625C0.984573 8.1877 0.988946 7.988 1.04701 7.80202C1.10471 7.61614 1.21343 7.45201 1.35968 7.33C1.50593 7.20799 1.68328 7.13345 1.86975 7.11562L7.06586 6.62333L9.12026 1.60661C9.27168 1.23802 9.61664 1 9.99996 1C10.3833 1 10.7282 1.23802 10.8797 1.60576L12.9341 6.62333L18.1294 7.11555C18.5119 7.1515 18.8344 7.42166 18.9529 7.80198C19.0715 8.18235 18.9618 8.59951 18.6732 8.86247L14.746 12.4556L15.904 17.7782C15.9889 18.1696 15.8433 18.5743 15.5321 18.809C15.2216 19.0437 14.8075 19.0618 14.4806 18.8567L9.99996 16.0627L5.51937 18.8583C5.36788 18.9522 5.19909 19 5.02882 19ZM9.99996 14.8591C10.1703 14.8591 10.3389 14.9068 10.4905 15.0007L14.7191 17.6398L13.6262 12.6159C13.588 12.4403 13.5959 12.2572 13.6493 12.0859C13.7026 11.9147 13.7994 11.7617 13.9293 11.6431L17.6374 8.24967L12.7315 7.78482C12.5588 7.76869 12.3936 7.70386 12.2536 7.59727C12.1136 7.49069 12.0039 7.34636 11.9365 7.17975L9.99996 2.44555L8.06112 7.18045C7.9246 7.51778 7.62081 7.74952 7.26843 7.7832L2.36181 8.24809L6.06982 11.6416C6.3354 11.8842 6.45156 12.2568 6.37287 12.6152L5.28083 17.6389L9.50941 15.0007C9.6609 14.9068 9.82969 14.8591 9.99996 14.8591ZM7.02616 6.72033C7.02616 6.72033 7.02616 6.72117 7.02535 6.72191L7.02616 6.72033ZM12.9723 6.71802L12.9731 6.71959C12.9731 6.71875 12.9731 6.71875 12.9723 6.71802Z" fill="#8B8B8B"/>
<path d="M9.99996 14.8591C10.1703 14.8591 10.3389 14.9068 10.4905 15.0007L14.7191 17.6398L13.6262 12.6159C13.588 12.4403 13.5959 12.2572 13.6493 12.0859C13.7026 11.9147 13.7994 11.7617 13.9293 11.6431L17.6374 8.24967L12.7315 7.78482C12.5588 7.76869 12.3936 7.70386 12.2536 7.59727C12.1136 7.49069 12.0039 7.34636 11.9365 7.17975L9.99996 2.44555L8.06112 7.18045C7.9246 7.51778 7.62081 7.74952 7.26843 7.7832L2.36181 8.24809L6.06982 11.6416C6.3354 11.8842 6.45156 12.2568 6.37287 12.6152L5.28083 17.6389L9.50941 15.0007C9.6609 14.9068 9.82969 14.8591 9.99996 14.8591Z" fill="#8B8B8B"/>
<path d="M5.02882 19C4.83159 19 4.63577 18.9358 4.46863 18.8097C4.31662 18.6949 4.2003 18.536 4.13416 18.3527C4.06801 18.1695 4.05495 17.97 4.0966 17.779L5.2546 12.4562L1.32742 8.86251C1.18618 8.73391 1.08429 8.56481 1.03443 8.37625C0.984573 8.1877 0.988946 7.988 1.04701 7.80202C1.10471 7.61614 1.21343 7.45201 1.35968 7.33C1.50593 7.20799 1.68328 7.13345 1.86975 7.11562L7.06586 6.62333L9.12026 1.60661C9.27168 1.23802 9.61664 1 9.99996 1C10.3833 1 10.7282 1.23802 10.8797 1.60576L12.9341 6.62333L18.1294 7.11555C18.5119 7.1515 18.8344 7.42166 18.9529 7.80198C19.0715 8.18235 18.9618 8.59951 18.6732 8.86247L14.746 12.4556L15.904 17.7782C15.9889 18.1696 15.8433 18.5743 15.5321 18.809C15.2216 19.0437 14.8075 19.0618 14.4806 18.8567L9.99996 16.0627L5.51937 18.8583C5.36788 18.9522 5.19909 19 5.02882 19ZM9.99996 14.8591C10.1703 14.8591 10.3389 14.9068 10.4905 15.0007L14.7191 17.6398L13.6262 12.6159C13.588 12.4403 13.5959 12.2572 13.6493 12.0859C13.7026 11.9147 13.7994 11.7617 13.9293 11.6431L17.6374 8.24967L12.7315 7.78482C12.5588 7.76869 12.3936 7.70386 12.2536 7.59727C12.1136 7.49069 12.0039 7.34636 11.9365 7.17975L9.99996 2.44555L8.06112 7.18045C7.9246 7.51778 7.62081 7.74952 7.26843 7.7832L2.36181 8.24809L6.06982 11.6416C6.3354 11.8842 6.45156 12.2568 6.37287 12.6152L5.28083 17.6389L9.50941 15.0007C9.6609 14.9068 9.82969 14.8591 9.99996 14.8591ZM7.02616 6.72033C7.02616 6.72033 7.02616 6.72117 7.02535 6.72191L7.02616 6.72033ZM12.9723 6.71802L12.9731 6.71959C12.9731 6.71875 12.9731 6.71875 12.9723 6.71802Z" stroke="#8B8B8B" stroke-width="0.3"/>
<path d="M9.99996 14.8591C10.1703 14.8591 10.3389 14.9068 10.4905 15.0007L14.7191 17.6398L13.6262 12.6159C13.588 12.4403 13.5959 12.2572 13.6493 12.0859C13.7026 11.9147 13.7994 11.7617 13.9293 11.6431L17.6374 8.24967L12.7315 7.78482C12.5588 7.76869 12.3936 7.70386 12.2536 7.59727C12.1136 7.49069 12.0039 7.34636 11.9365 7.17975L9.99996 2.44555L8.06112 7.18045C7.9246 7.51778 7.62081 7.74952 7.26843 7.7832L2.36181 8.24809L6.06982 11.6416C6.3354 11.8842 6.45156 12.2568 6.37287 12.6152L5.28083 17.6389L9.50941 15.0007C9.6609 14.9068 9.82969 14.8591 9.99996 14.8591Z" stroke="#8B8B8B" stroke-width="0.3"/>
</svg>
