<svg width="19" height="19" viewBox="0 0 19 19" fill="none" xmlns="http://www.w3.org/2000/svg">
<path fill-rule="evenodd" clip-rule="evenodd" d="M3.60207 0H4.9318C5.39806 0 5.77433 -3.90164e-08 6.08077 0.0209467C6.39536 0.0422814 6.67388 0.0876661 6.93765 0.196667C7.57115 0.459229 8.07443 0.96265 8.33682 1.59622C8.44621 1.86 8.49159 2.13851 8.51292 2.45349C8.53387 2.75954 8.53387 3.13581 8.53387 3.60207V4.9318C8.53387 5.39806 8.53387 5.77433 8.51292 6.08077C8.49159 6.39536 8.44621 6.67388 8.33682 6.93765C8.07438 7.5711 7.5711 8.07438 6.93765 8.33682C6.67388 8.44621 6.39536 8.49159 6.08038 8.51292C5.77433 8.53387 5.39806 8.53387 4.9318 8.53387H3.60207C3.13581 8.53387 2.75954 8.53387 2.4531 8.51292C2.13851 8.49159 1.86 8.44621 1.59622 8.33682C0.96265 8.07443 0.459229 7.57115 0.196667 6.93765C0.0876661 6.67388 0.0422814 6.39536 0.0209467 6.08038C-3.90164e-08 5.77472 0 5.39845 0 4.93219V3.60246C0 3.1362 -3.90164e-08 2.75993 0.0209467 2.45349C0.0422814 2.1389 0.0876661 1.86038 0.196667 1.59661C0.459145 0.962964 0.962576 0.459533 1.59622 0.197055C1.86 0.0880542 2.13851 0.0426695 2.45349 0.0213348C2.75916 1.18494e-07 3.13581 0 3.60207 0ZM2.5237 1.05277C2.26148 1.07061 2.10864 1.10436 1.99227 1.15246C1.804 1.23044 1.63293 1.34474 1.48883 1.48883C1.34474 1.63293 1.23044 1.804 1.15246 1.99227C1.10436 2.10864 1.071 2.26148 1.05277 2.5237C1.03454 2.79058 1.03454 3.13154 1.03454 3.6203V4.91357C1.03454 5.40233 1.03454 5.74368 1.05277 6.01017C1.07061 6.2724 1.10436 6.42523 1.15246 6.5416C1.23044 6.72987 1.34474 6.90094 1.48883 7.04504C1.63293 7.18914 1.804 7.30343 1.99227 7.38141C2.10864 7.42951 2.26148 7.46287 2.5237 7.4811C2.79058 7.49933 3.13154 7.49933 3.6203 7.49933H4.91357C5.40233 7.49933 5.74368 7.49933 6.01017 7.4811C6.2724 7.46326 6.42523 7.42951 6.5416 7.38141C6.72987 7.30343 6.90094 7.18914 7.04504 7.04504C7.18914 6.90094 7.30343 6.72987 7.38141 6.5416C7.42951 6.42523 7.46287 6.2724 7.4811 6.01017C7.49933 5.7433 7.49933 5.40233 7.49933 4.91357V3.6203C7.49933 3.13154 7.49933 2.79019 7.4811 2.5237C7.46326 2.26148 7.42951 2.10864 7.38141 1.99227C7.30343 1.804 7.18914 1.63293 7.04504 1.48883C6.90094 1.34474 6.72987 1.23044 6.5416 1.15246C6.42523 1.10436 6.2724 1.071 6.01017 1.05277C5.7433 1.03454 5.40233 1.03454 4.91357 1.03454H3.6203C3.13154 1.03454 2.79019 1.03454 2.5237 1.05277Z" fill="#3BBA73"/>
<path fill-rule="evenodd" clip-rule="evenodd" d="M3.60207 10.0855H4.9318C5.39806 10.0855 5.77433 10.0855 6.08077 10.1064C6.39536 10.1278 6.67387 10.1731 6.93765 10.2822C7.57117 10.5447 8.07446 11.0481 8.33682 11.6817C8.4462 11.9455 8.49159 12.224 8.51292 12.539C8.53387 12.845 8.53387 13.2213 8.53387 13.6876V15.0173C8.53387 15.4835 8.53387 15.8598 8.51292 16.1663C8.49159 16.4808 8.4462 16.7594 8.33682 17.0231C8.07446 17.6567 7.57117 18.1602 6.93765 18.4227C6.67387 18.5317 6.39536 18.5771 6.08038 18.5984C5.77433 18.6194 5.39806 18.6194 4.9318 18.6194H3.60207C3.13581 18.6194 2.75954 18.6194 2.4531 18.5984C2.13851 18.5771 1.86 18.5317 1.59622 18.4227C0.962576 18.1602 0.459145 17.6568 0.196667 17.0231C0.0876661 16.7594 0.0422814 16.4808 0.0209467 16.1659C-3.91155e-08 15.8602 0 15.4839 0 15.0177V13.6879C0 13.2217 -3.91155e-08 12.8454 0.0209467 12.539C0.0422814 12.2244 0.0876661 11.9459 0.196667 11.6821C0.459145 11.0484 0.962576 10.545 1.59622 10.2825C1.86 10.1735 2.13851 10.1282 2.45349 10.1068C2.75916 10.0855 3.13581 10.0855 3.60207 10.0855ZM2.5237 11.1383C2.26148 11.1561 2.10864 11.1898 1.99227 11.2379C1.804 11.3159 1.63293 11.4302 1.48883 11.5743C1.34474 11.7184 1.23044 11.8895 1.15246 12.0778C1.10436 12.1941 1.071 12.347 1.05277 12.6092C1.03454 12.8761 1.03454 13.217 1.03454 13.7058V14.9991C1.03454 15.4878 1.03454 15.8292 1.05277 16.0957C1.07061 16.3579 1.10436 16.5107 1.15246 16.6271C1.23044 16.8154 1.34474 16.9864 1.48883 17.1305C1.63293 17.2746 1.804 17.3889 1.99227 17.4669C2.10864 17.515 2.26148 17.5484 2.5237 17.5666C2.79058 17.5848 3.13154 17.5848 3.6203 17.5848H4.91357C5.40233 17.5848 5.74368 17.5848 6.01017 17.5666C6.2724 17.5487 6.42523 17.515 6.5416 17.4669C6.72987 17.3889 6.90094 17.2746 7.04504 17.1305C7.18913 16.9864 7.30343 16.8154 7.38141 16.6271C7.42951 16.5107 7.46287 16.3579 7.4811 16.0957C7.49933 15.8288 7.49933 15.4878 7.49933 14.9991V13.7058C7.49933 13.217 7.49933 12.8757 7.4811 12.6092C7.46326 12.347 7.42951 12.1941 7.38141 12.0778C7.30343 11.8895 7.18913 11.7184 7.04504 11.5743C6.90094 11.4302 6.72987 11.3159 6.5416 11.2379C6.42523 11.1898 6.2724 11.1565 6.01017 11.1383C5.74329 11.12 5.40233 11.12 4.91357 11.12H3.6203C3.13154 11.12 2.79019 11.12 2.5237 11.1383ZM13.6876 0H15.0173C15.4835 0 15.8598 -3.91155e-08 16.1663 0.0209467C16.4808 0.0422814 16.7594 0.0876661 17.0231 0.196667C17.6568 0.459145 18.1602 0.962576 18.4227 1.59622C18.5317 1.86 18.5771 2.13851 18.5984 2.45349C18.6194 2.75954 18.6194 3.13581 18.6194 3.60207V4.9318C18.6194 5.39806 18.6194 5.77433 18.5984 6.08077C18.5771 6.39536 18.5317 6.67387 18.4227 6.93765C18.1602 7.57117 17.6567 8.07446 17.0231 8.33682C16.7594 8.4462 16.4808 8.49159 16.1659 8.51292C15.8598 8.53387 15.4835 8.53387 15.0173 8.53387H13.6876C13.2213 8.53387 12.845 8.53387 12.5386 8.51292C12.224 8.49159 11.9455 8.4462 11.6817 8.33682C11.0481 8.07446 10.5447 7.57117 10.2822 6.93765C10.1731 6.67387 10.1278 6.39536 10.1064 6.08038C10.0855 5.77471 10.0855 5.39845 10.0855 4.93219V3.60246C10.0855 3.1362 10.0855 2.75993 10.1064 2.45349C10.1278 2.1389 10.1731 1.86038 10.2822 1.59661C10.5446 0.962964 11.0481 0.459533 11.6817 0.197055C11.9455 0.0880542 12.224 0.0426695 12.539 0.0213348C12.8446 1.19209e-07 13.2213 0 13.6876 0ZM12.6092 1.05277C12.347 1.07061 12.1941 1.10436 12.0778 1.15246C11.8895 1.23044 11.7184 1.34474 11.5743 1.48883C11.4302 1.63293 11.3159 1.804 11.2379 1.99227C11.1898 2.10864 11.1565 2.26148 11.1383 2.5237C11.12 2.79058 11.12 3.13154 11.12 3.6203V4.91357C11.12 5.40233 11.12 5.74368 11.1383 6.01017C11.1561 6.2724 11.1898 6.42523 11.2379 6.5416C11.3159 6.72987 11.4302 6.90094 11.5743 7.04504C11.7184 7.18913 11.8895 7.30343 12.0778 7.38141C12.1941 7.42951 12.347 7.46287 12.6092 7.4811C12.8761 7.49933 13.217 7.49933 13.7058 7.49933H14.9991C15.4878 7.49933 15.8292 7.49933 16.0957 7.4811C16.3579 7.46326 16.5107 7.42951 16.6271 7.38141C16.8154 7.30343 16.9864 7.18913 17.1305 7.04504C17.2746 6.90094 17.3889 6.72987 17.4669 6.5416C17.515 6.42523 17.5484 6.2724 17.5666 6.01017C17.5848 5.74329 17.5848 5.40233 17.5848 4.91357V3.6203C17.5848 3.13154 17.5848 2.79019 17.5666 2.5237C17.5487 2.26148 17.515 2.10864 17.4669 1.99227C17.3889 1.804 17.2746 1.63293 17.1305 1.48883C16.9864 1.34474 16.8154 1.23044 16.6271 1.15246C16.5107 1.10436 16.3579 1.071 16.0957 1.05277C15.8288 1.03454 15.4878 1.03454 14.9991 1.03454H13.7058C13.217 1.03454 12.8757 1.03454 12.6092 1.05277Z" fill="#3BBA73"/>
<path d="M12.6092 1.05277C12.347 1.07061 12.1941 1.10436 12.0778 1.15246C11.8895 1.23044 11.7184 1.34474 11.5743 1.48883C11.4302 1.63293 11.3159 1.804 11.2379 1.99227C11.1898 2.10864 11.1565 2.26148 11.1383 2.5237C11.12 2.79058 11.12 3.13154 11.12 3.6203V4.91357C11.12 5.40233 11.12 5.74368 11.1383 6.01017C11.1561 6.2724 11.1898 6.42523 11.2379 6.5416C11.3159 6.72987 11.4302 6.90094 11.5743 7.04504C11.7184 7.18913 11.8895 7.30343 12.0778 7.38141C12.1941 7.42951 12.347 7.46287 12.6092 7.4811C12.8761 7.49933 13.217 7.49933 13.7058 7.49933H14.9991C15.4878 7.49933 15.8292 7.49933 16.0957 7.4811C16.3579 7.46326 16.5107 7.42951 16.6271 7.38141C16.8154 7.30343 16.9864 7.18913 17.1305 7.04504C17.2746 6.90094 17.3889 6.72987 17.4669 6.5416C17.515 6.42523 17.5484 6.2724 17.5666 6.01017C17.5848 5.74329 17.5848 5.40233 17.5848 4.91357V3.6203C17.5848 3.13154 17.5848 2.79019 17.5666 2.5237C17.5487 2.26148 17.515 2.10864 17.4669 1.99227C17.3889 1.804 17.2746 1.63293 17.1305 1.48883C16.9864 1.34474 16.8154 1.23044 16.6271 1.15246C16.5107 1.10436 16.3579 1.071 16.0957 1.05277C15.8288 1.03454 15.4878 1.03454 14.9991 1.03454H13.7058C13.217 1.03454 12.8757 1.03454 12.6092 1.05277Z" fill="#3BBA73"/>
<path d="M2.5237 11.1383C2.26148 11.1561 2.10864 11.1898 1.99227 11.2379C1.804 11.3159 1.63293 11.4302 1.48883 11.5743C1.34474 11.7184 1.23044 11.8895 1.15246 12.0778C1.10436 12.1941 1.071 12.347 1.05277 12.6092C1.03454 12.8761 1.03454 13.217 1.03454 13.7058V14.9991C1.03454 15.4878 1.03454 15.8292 1.05277 16.0957C1.07061 16.3579 1.10436 16.5107 1.15246 16.6271C1.23044 16.8154 1.34474 16.9864 1.48883 17.1305C1.63293 17.2746 1.804 17.3889 1.99227 17.4669C2.10864 17.515 2.26148 17.5484 2.5237 17.5666C2.79058 17.5848 3.13154 17.5848 3.6203 17.5848H4.91357C5.40233 17.5848 5.74368 17.5848 6.01017 17.5666C6.2724 17.5487 6.42523 17.515 6.5416 17.4669C6.72987 17.3889 6.90094 17.2746 7.04504 17.1305C7.18913 16.9864 7.30343 16.8154 7.38141 16.6271C7.42951 16.5107 7.46287 16.3579 7.4811 16.0957C7.49933 15.8288 7.49933 15.4878 7.49933 14.9991V13.7058C7.49933 13.217 7.49933 12.8757 7.4811 12.6092C7.46326 12.347 7.42951 12.1941 7.38141 12.0778C7.30343 11.8895 7.18913 11.7184 7.04504 11.5743C6.90094 11.4302 6.72987 11.3159 6.5416 11.2379C6.42523 11.1898 6.2724 11.1565 6.01017 11.1383C5.74329 11.12 5.40233 11.12 4.91357 11.12H3.6203C3.13154 11.12 2.79019 11.12 2.5237 11.1383Z" fill="#3BBA73"/>
<path fill-rule="evenodd" clip-rule="evenodd" d="M13.6876 10.0854H15.0173C15.4836 10.0854 15.8598 10.0854 16.1663 10.1064C16.4809 10.1277 16.7594 10.1731 17.0232 10.2821C17.3369 10.4121 17.622 10.6025 17.8621 10.8427C18.1023 11.0828 18.2928 11.3679 18.4227 11.6817C18.5317 11.9454 18.5771 12.224 18.5984 12.5389C18.6194 12.845 18.6194 13.2213 18.6194 13.6875V15.0173C18.6194 15.4835 18.6194 15.8598 18.5984 16.1662C18.5771 16.4808 18.5317 16.7593 18.4227 17.0231C18.2928 17.3369 18.1023 17.6219 17.8621 17.8621C17.622 18.1022 17.3369 18.2927 17.0232 18.4227C16.7594 18.5317 16.4809 18.577 16.1659 18.5984C15.8598 18.6193 15.4836 18.6193 15.0173 18.6193H13.6876C13.2213 18.6193 12.8451 18.6193 12.5386 18.5984C12.224 18.577 11.9455 18.5317 11.6817 18.4227C11.368 18.2927 11.0829 18.1022 10.8427 17.8621C10.6026 17.6219 10.4121 17.3369 10.2822 17.0231C10.1732 16.7593 10.1278 16.4808 10.1065 16.1658C10.0855 15.8602 10.0855 15.4839 10.0855 15.0176V13.6879C10.0855 13.2216 10.0855 12.8454 10.1065 12.5389C10.1278 12.2243 10.1732 11.9458 10.2822 11.6821C10.4121 11.3683 10.6026 11.0832 10.8427 10.8431C11.0829 10.6029 11.368 10.4125 11.6817 10.2825C11.9455 10.1735 12.224 10.1281 12.539 10.1068C12.8447 10.0854 13.2213 10.0854 13.6876 10.0854ZM12.6092 11.1382C12.347 11.1561 12.1942 11.1898 12.0778 11.2379C11.8895 11.3159 11.7184 11.4302 11.5743 11.5743C11.4302 11.7184 11.3159 11.8894 11.238 12.0777C11.1899 12.1941 11.1565 12.3469 11.1383 12.6091C11.12 12.876 11.12 13.217 11.12 13.7058V14.999C11.12 15.4878 11.12 15.8291 11.1383 16.0956C11.1561 16.3578 11.1899 16.5107 11.238 16.627C11.3159 16.8153 11.4302 16.9864 11.5743 17.1305C11.7184 17.2746 11.8895 17.3889 12.0778 17.4669C12.1942 17.515 12.347 17.5483 12.6092 17.5666C12.8761 17.5848 13.2171 17.5848 13.7058 17.5848H14.9991C15.4878 17.5848 15.8292 17.5848 16.0957 17.5666C16.3579 17.5487 16.5107 17.515 16.6271 17.4669C16.8154 17.3889 16.9865 17.2746 17.1305 17.1305C17.2746 16.9864 17.3889 16.8153 17.4669 16.627C17.515 16.5107 17.5484 16.3578 17.5666 16.0956C17.5848 15.8287 17.5848 15.4878 17.5848 14.999V13.7058C17.5848 13.217 17.5848 12.8756 17.5666 12.6091C17.5488 12.3469 17.515 12.1941 17.4669 12.0777C17.3889 11.8894 17.2746 11.7184 17.1305 11.5743C16.9865 11.4302 16.8154 11.3159 16.6271 11.2379C16.5107 11.1898 16.3579 11.1565 16.0957 11.1382C15.8288 11.12 15.4878 11.12 14.9991 11.12H13.7058C13.2171 11.12 12.8757 11.12 12.6092 11.1382Z" fill="#3BBA73"/>
</svg>
