<svg width="60" height="79" viewBox="0 0 60 79" fill="none" xmlns="http://www.w3.org/2000/svg">
<path d="M46.1036 16.4127C46.1036 7.36276 38.7516 0 29.7147 0C20.6779 0 13.3258 7.36276 13.3258 16.4127C13.3258 25.4627 20.6779 32.8255 29.7147 32.8255C38.7516 32.8255 46.1036 25.4627 46.1036 16.4127ZM29.7147 32.8255C13.4484 32.8255 0.214722 46.0784 0.214722 62.3684V65.4448C0.214722 66.3779 0.611114 67.2669 1.30513 67.8895C9.28936 75.0542 19.3788 79 29.7147 79C40.0509 79 50.1403 75.0542 58.1243 67.8895C58.4674 67.5816 58.7419 67.2048 58.9298 66.7836C59.1176 66.3623 59.2147 65.9062 59.2147 65.4448V62.3684C59.2147 46.0784 45.981 32.8255 29.7147 32.8255Z" fill="white" fill-opacity="0.2"/>
</svg>
