<svg width="18" height="14" viewBox="0 0 18 14" fill="none" xmlns="http://www.w3.org/2000/svg">
<path d="M1.1024 9.92104L0.00742969 2.80403C-0.0735682 2.27844 0.525216 1.91965 0.950605 2.23884L4.36212 4.79718C4.45079 4.8636 4.55208 4.91126 4.65978 4.93724C4.76749 4.96322 4.87937 4.96698 4.98858 4.94828C5.09778 4.92959 5.20204 4.88883 5.29497 4.8285C5.3879 4.76816 5.46756 4.68953 5.52909 4.59738L8.36941 0.337491C8.6694 -0.112497 9.33059 -0.112497 9.63058 0.337491L12.4709 4.59738C12.5324 4.68953 12.6121 4.76816 12.705 4.8285C12.798 4.88883 12.9022 4.92959 13.0114 4.94828C13.1206 4.96698 13.2325 4.96322 13.3402 4.93724C13.4479 4.91126 13.5492 4.8636 13.6379 4.79718L17.0494 2.23884C17.4754 1.91965 18.0736 2.27844 17.9926 2.80403L16.8976 9.92104H1.1024ZM16.0738 13.8701H1.92618C1.818 13.8701 1.71088 13.8488 1.61093 13.8074C1.51099 13.766 1.42018 13.7054 1.34368 13.6289C1.18919 13.4744 1.1024 13.2648 1.1024 13.0464V11.2374H16.8976V13.0464C16.8976 13.5012 16.5286 13.8701 16.0738 13.8701Z" fill="#8B8B8B"/>
</svg>
