<svg width="18" height="18" viewBox="0 0 18 18" fill="none" xmlns="http://www.w3.org/2000/svg">
<path d="M0.760577 2.20639e-08C0.558859 2.20639e-08 0.365404 0.080132 0.222768 0.222768C0.080132 0.365404 0 0.558859 0 0.760577C0 0.962295 0.080132 1.15575 0.222768 1.29839C0.365404 1.44102 0.558859 1.52115 0.760577 1.52115H2.1144C2.22496 1.52135 2.33266 1.55625 2.42232 1.62093C2.51197 1.68561 2.57906 1.77682 2.6141 1.88167L5.12173 9.40606C5.23353 9.74071 5.24722 10.0997 5.16204 10.442L4.95592 11.2687C4.65245 12.4811 5.59633 13.6904 6.84519 13.6904H15.9721C16.1738 13.6904 16.3673 13.6103 16.5099 13.4676C16.6526 13.325 16.7327 13.1315 16.7327 12.9298C16.7327 12.7281 16.6526 12.5346 16.5099 12.392C16.3673 12.2494 16.1738 12.1692 15.9721 12.1692H6.84519C6.54857 12.1692 6.35842 11.9258 6.43068 11.6391L6.5866 11.017C6.61287 10.9117 6.67353 10.8183 6.75896 10.7514C6.84439 10.6846 6.94969 10.6482 7.05816 10.6481H15.2115C15.3714 10.6483 15.5272 10.5981 15.6569 10.5047C15.7866 10.4114 15.8836 10.2795 15.9341 10.1278L17.961 4.04323C17.9991 3.92889 18.0095 3.80714 17.9913 3.688C17.9731 3.56887 17.9268 3.45577 17.8563 3.35802C17.7858 3.26027 17.6931 3.18067 17.5858 3.12578C17.4786 3.07089 17.3598 3.04228 17.2392 3.04231H4.98558C4.8749 3.04228 4.76703 3.00745 4.67722 2.94275C4.58741 2.87806 4.52021 2.78677 4.48512 2.68179L3.7641 0.520235C3.71363 0.368723 3.61676 0.23694 3.48721 0.143565C3.35766 0.0501898 3.202 -3.84324e-05 3.04231 2.20639e-08H0.760577ZM6.08462 14.451C5.68118 14.451 5.29427 14.6112 5.009 14.8965C4.72373 15.1818 4.56346 15.5687 4.56346 15.9721C4.56346 16.3756 4.72373 16.7625 5.009 17.0477C5.29427 17.333 5.68118 17.4933 6.08462 17.4933C6.48805 17.4933 6.87496 17.333 7.16023 17.0477C7.44551 16.7625 7.60577 16.3756 7.60577 15.9721C7.60577 15.5687 7.44551 15.1818 7.16023 14.8965C6.87496 14.6112 6.48805 14.451 6.08462 14.451ZM15.2115 14.451C14.8081 14.451 14.4212 14.6112 14.1359 14.8965C13.8507 15.1818 13.6904 15.5687 13.6904 15.9721C13.6904 16.3756 13.8507 16.7625 14.1359 17.0477C14.4212 17.333 14.8081 17.4933 15.2115 17.4933C15.615 17.4933 16.0019 17.333 16.2872 17.0477C16.5724 16.7625 16.7327 16.3756 16.7327 15.9721C16.7327 15.5687 16.5724 15.1818 16.2872 14.8965C16.0019 14.6112 15.615 14.451 15.2115 14.451Z" fill="#8B8B8B"/>
</svg>
