<svg width="24" height="24" viewBox="0 0 24 24" fill="none" xmlns="http://www.w3.org/2000/svg">
<circle cx="12" cy="12" r="12" fill="#FFE4DE"/>
<path d="M4.46883 16H7.28112C7.53999 16 7.74986 15.7761 7.74986 15.5C7.74986 15.2239 7.53999 15 7.28112 15H5.60034L11.4997 8.70708L14.9181 12.3536C15.1012 12.5488 15.398 12.5488 15.581 12.3536L19.8498 7.85354C20.0328 7.65827 20.0574 7.34171 19.8744 7.14644C19.6914 6.9512 19.37 6.95117 19.1869 7.14644L15.2496 11.2929L11.8311 7.64644C11.6481 7.45117 11.3513 7.45117 11.1683 7.64644L4.93746 14.2929V12.5C4.93746 12.2239 4.7276 12 4.46873 12C4.20987 12 4 12.2239 4 12.5V15.4998C3.99987 15.7834 4.21802 16 4.46883 16Z" fill="#FD7A5D" stroke="#FD7A5D" stroke-opacity="0.96"/>
</svg>
