<svg width="18" height="18" viewBox="0 0 18 18" fill="none" xmlns="http://www.w3.org/2000/svg">
<path d="M9 3.16406C5.78211 3.16406 3.16406 5.78211 3.16406 9C3.16406 12.2179 5.78211 14.8359 9 14.8359C12.2179 14.8359 14.8359 12.2179 14.8359 9C14.8359 5.78211 12.2179 3.16406 9 3.16406ZM8.73826 8.47266H9.26174C10.3321 8.47266 11.2029 9.34348 11.2029 10.4138C11.2029 11.3939 10.4724 12.2064 9.52734 12.3363V13.4109H8.47266V12.3363C7.52755 12.2062 6.79711 11.3939 6.79711 10.4138H7.8518C7.8518 10.9026 8.24948 11.3003 8.73826 11.3003H9.26174C9.75052 11.3003 10.1482 10.9026 10.1482 10.4138C10.1482 9.92507 9.75052 9.52734 9.26174 9.52734H8.73826C7.66789 9.52734 6.79711 8.65652 6.79711 7.58619C6.79711 6.60607 7.52755 5.79364 8.47266 5.66374V4.58912H9.52734V5.66374C10.4724 5.79379 11.2029 6.60607 11.2029 7.58619H10.1482C10.1482 7.09745 9.75052 6.69973 9.26174 6.69973H8.73826C8.24948 6.69973 7.8518 7.09745 7.8518 7.58619C7.8518 8.07493 8.24948 8.47266 8.73826 8.47266Z" fill="#8B8B8B"/>
<path d="M15.364 2.63602C13.6641 0.936211 11.4039 0 9 0C6.59605 0 4.33589 0.936176 2.63602 2.63602C0.936211 4.33589 0 6.59605 0 9C0 11.4039 0.936176 13.6641 2.63602 15.364C4.33589 17.0638 6.59605 18 9 18C11.4039 18 13.6641 17.0638 15.364 15.364C17.0638 13.6641 18 11.4039 18 9C18 6.59605 17.0638 4.33589 15.364 2.63602ZM9 15.8906C5.20052 15.8906 2.10938 12.7995 2.10938 9C2.10938 5.20052 5.20052 2.10938 9 2.10938C12.7995 2.10938 15.8906 5.20052 15.8906 9C15.8906 12.7995 12.7995 15.8906 9 15.8906Z" fill="#8B8B8B"/>
</svg>
