<svg width="22" height="21" viewBox="0 0 22 21" fill="none" xmlns="http://www.w3.org/2000/svg">
<path d="M15.8727 0C17.2975 0 18.6681 0.600667 19.6764 1.67847C20.6858 2.754 21.25 4.20467 21.25 5.72333V14.6767C21.25 17.8387 18.8381 20.4 15.8727 20.4H5.37625C2.41081 20.4 0 17.8387 0 14.6767V5.72333C0 2.56133 2.40019 0 5.37625 0H15.8727ZM17.0744 5.89333C16.8512 5.88087 16.6388 5.96133 16.4783 6.12L11.6875 10.2C11.0712 10.7451 10.1883 10.7451 9.5625 10.2L4.78125 6.12C4.45081 5.85933 3.99394 5.89333 3.71875 6.19933C3.43187 6.50533 3.4 6.99267 3.64331 7.33267L3.7825 7.48L8.61687 11.5033C9.21187 12.002 9.93331 12.274 10.6888 12.274C11.4421 12.274 12.1763 12.002 12.7702 11.5033L17.5631 7.412L17.6481 7.32133C17.9021 6.99267 17.9021 6.51667 17.6364 6.188C17.4888 6.01913 17.2858 5.916 17.0744 5.89333Z" fill="#B0B0B0"/>
</svg>
