<svg width="20" height="20" viewBox="0 0 20 20" fill="none" xmlns="http://www.w3.org/2000/svg">
<path d="M20 1.33411C19.9998 1.17941 19.9728 1.02593 19.9201 0.880511C19.8635 0.75759 19.7869 0.644893 19.6936 0.546984C19.6646 0.50909 19.6284 0.477346 19.587 0.453597C19.5106 0.375288 19.4202 0.311945 19.3206 0.266821H19.1874C19.0361 0.1405 18.8586 0.0493712 18.6679 0H13.3393C12.986 0 12.6472 0.140558 12.3974 0.390751C12.1475 0.640945 12.0072 0.98028 12.0072 1.33411C12.0072 1.68794 12.1475 2.02727 12.3974 2.27746C12.6472 2.52766 12.986 2.66822 13.3393 2.66822H15.3642L12.5267 5.40314C10.8766 4.2649 8.85986 3.78884 6.87589 4.06925C4.89192 4.34965 3.08547 5.36607 1.81436 6.91718C0.54325 8.46828 -0.0997966 10.4409 0.0125936 12.4444C0.124984 14.4478 0.984613 16.3359 2.42121 17.7346C3.8578 19.1334 5.76656 19.9408 7.76941 19.9969C9.77226 20.053 11.7231 19.3537 13.2355 18.0375C14.7479 16.7213 15.7115 14.8843 15.9355 12.8903C16.1595 10.8963 15.6276 8.8907 14.445 7.27089L17.3357 4.46926V6.67054C17.3357 7.02437 17.4761 7.3637 17.7259 7.6139C17.9757 7.86409 18.3146 8.00465 18.6679 8.00465C19.0212 8.00465 19.36 7.86409 19.6098 7.6139C19.8597 7.3637 20 7.02437 20 6.67054V1.33411ZM8.01078 17.3434C6.95689 17.3434 5.92667 17.0304 5.0504 16.4441C4.17412 15.8577 3.49115 15.0242 3.08784 14.0491C2.68454 13.074 2.57902 12.0011 2.78462 10.9659C2.99022 9.93072 3.49772 8.97986 4.24293 8.23354C4.98814 7.48723 5.93759 6.97898 6.97123 6.77308C8.00487 6.56717 9.07626 6.67285 10.0499 7.07675C11.0236 7.48065 11.8558 8.16464 12.4413 9.04221C13.0268 9.91978 13.3393 10.9515 13.3393 12.007C13.3393 13.4223 12.7779 14.7796 11.7786 15.7804C10.7793 16.7812 9.42399 17.3434 8.01078 17.3434Z" fill="#1769B4"/>
</svg>
