<svg width="17" height="23" viewBox="0 0 17 23" fill="none" xmlns="http://www.w3.org/2000/svg">
<path d="M8.50138 22.1C9.73404 22.1 10.7426 21.08 10.7426 19.8333H6.26019C6.26019 21.08 7.25752 22.1 8.50138 22.1ZM15.225 15.3V9.63333C15.225 6.154 13.3872 3.24133 10.1823 2.47067V1.7C10.1823 0.759333 9.43148 0 8.50138 0C7.57129 0 6.82049 0.759333 6.82049 1.7V2.47067C3.60437 3.24133 1.7778 6.14267 1.7778 9.63333V15.3L0.332231 16.762C-0.373744 17.476 0.119318 18.7 1.11665 18.7H15.8749C16.8722 18.7 17.3765 17.476 16.6705 16.762L15.225 15.3Z" fill="#B0B0B0"/>
</svg>
