<svg width="17" height="16" viewBox="0 0 17 16" fill="none" xmlns="http://www.w3.org/2000/svg">
<path fill-rule="evenodd" clip-rule="evenodd" d="M3.69737 0.112271L6.76222 3.17745C6.89774 3.31264 6.91307 3.5273 6.798 3.68029C6.33671 4.29573 5.5897 5.29152 5.18298 5.83954C5.05324 6.01295 4.97511 6.21947 4.95755 6.43532C4.93999 6.65118 4.98373 6.86761 5.08373 7.05971C5.08653 7.06465 5.08917 7.07009 5.0923 7.07504C5.41461 7.63228 5.85612 8.42776 7.00128 9.57275C8.14544 10.7172 8.9401 11.1583 9.49553 11.4842C9.68968 11.5894 9.90995 11.6367 10.1302 11.6205C10.3504 11.6042 10.5614 11.5251 10.738 11.3925L12.8936 9.77603C12.9676 9.72043 13.0593 9.69343 13.1517 9.7C13.2441 9.70658 13.331 9.74628 13.3964 9.81181L16.4618 12.8767C16.5338 12.9487 16.5745 13.0468 16.5745 13.1487C16.5745 13.2507 16.5338 13.3488 16.4618 13.4207C16.0605 13.8217 15.5017 14.3809 15.0093 14.8696L15.008 14.8707C14.6874 15.1912 14.291 15.4255 13.8556 15.5519C13.4203 15.6782 12.9601 15.6926 12.5177 15.5936C10.796 15.1863 8.01751 14.1184 5.23656 11.3375C2.4556 8.55652 1.38777 5.77821 0.977255 4.05701C0.878242 3.61414 0.892715 3.15342 1.01933 2.71764C1.14594 2.28185 1.3806 1.88511 1.70151 1.56424L3.15332 0.112436C3.22554 0.0404328 3.32336 0 3.42534 0C3.52733 0 3.62515 0.0402679 3.69737 0.112271Z" fill="#3BBA73"/>
</svg>
