<svg width="34" height="34" viewBox="0 0 34 34" fill="none" xmlns="http://www.w3.org/2000/svg">
<mask id="mask0_122_4194" style="mask-type:luminance" maskUnits="userSpaceOnUse" x="0" y="0" width="34" height="34">
<path d="M0 0H33.8981V33.8981H0V0Z" fill="white"/>
</mask>
<g mask="url(#mask0_122_4194)">
<path d="M32.8992 17.0246C32.8992 26.3067 25.6054 33.8294 16.6067 33.8294H16.4688C7.53632 33.7544 0.314209 26.2606 0.314209 17.0246C0.314209 7.78854 7.53632 0.294725 16.4688 0.21973H16.6067C25.6054 0.21396 32.8992 7.74239 32.8992 17.0246Z" fill="#FCDE02"/>
</g>
<mask id="mask1_122_4194" style="mask-type:luminance" maskUnits="userSpaceOnUse" x="0" y="0" width="17" height="34">
<path d="M0 0H16.9491V33.8981H0V0Z" fill="white"/>
</mask>
<g mask="url(#mask1_122_4194)">
<path d="M16.6674 33.8293H16.4633C7.53632 33.7485 0.314209 26.2547 0.314209 17.0187C0.314209 7.78845 7.5308 0.288863 16.4633 0.213867H16.6674C7.80666 0.375397 0.672832 7.84037 0.672832 17.0129C0.672832 26.1855 7.80666 33.662 16.6674 33.8293Z" fill="#FFEF94"/>
</g>
<path d="M30.7034 17.0244C30.7034 17.9762 30.6151 18.9224 30.433 19.8569C30.2509 20.7972 29.9861 21.703 29.6275 22.5856C29.2744 23.4683 28.844 24.3047 28.3254 25.1009C27.8123 25.897 27.2275 26.6296 26.5764 27.3046C25.9199 27.9795 25.2082 28.5853 24.4413 29.116C23.6688 29.641 22.8578 30.091 22.0026 30.4544C21.1474 30.8236 20.2647 31.1005 19.3599 31.2851C18.4495 31.4697 17.5336 31.562 16.6067 31.562C15.6854 31.562 14.764 31.4697 13.8591 31.2851C12.9488 31.1005 12.0715 30.8236 11.2164 30.4544C10.3612 30.091 9.54463 29.641 8.77773 29.116C8.01083 28.5853 7.29358 27.9795 6.64254 27.3046C5.98599 26.6296 5.40116 25.897 4.88805 25.1009C4.37494 24.3047 3.93908 23.4683 3.58598 22.5856C3.23287 21.703 2.96252 20.7972 2.78597 19.8569C2.6039 18.9224 2.51562 17.9762 2.51562 17.0244C2.51562 16.0667 2.6039 15.1206 2.78597 14.1861C2.96252 13.2515 3.23287 12.34 3.58598 11.4574C3.93908 10.5747 4.37494 9.73825 4.88805 8.94214C5.40116 8.15179 5.98599 7.41337 6.64254 6.73841C7.29358 6.06345 8.01083 5.46348 8.77773 4.93274C9.54463 4.402 10.3612 3.95203 11.2164 3.58859C12.0715 3.22515 12.9488 2.94824 13.8591 2.75786C14.764 2.57326 15.6854 2.48096 16.6067 2.48096C17.5336 2.48096 18.4495 2.57326 19.3599 2.75786C20.2647 2.94824 21.1474 3.22515 22.0026 3.58859C22.8578 3.95203 23.6688 4.402 24.4413 4.93274C25.2082 5.46348 25.9199 6.06345 26.5764 6.73841C27.2275 7.41337 27.8123 8.15179 28.3254 8.94214C28.844 9.73825 29.2744 10.5747 29.6275 11.4574C29.9861 12.34 30.2509 13.2515 30.433 14.1861C30.6151 15.1206 30.7034 16.0667 30.7034 17.0244Z" fill="#F8CC05"/>
<path d="M21.273 18.8219C21.1835 19.0752 21.0792 19.3286 20.9898 19.5819C20.9749 19.5819 20.96 19.5819 20.96 19.5819C20.8109 18.8517 20.5129 18.1959 19.8273 17.7936C19.8273 17.7787 19.8422 17.7638 19.8422 17.7489C20.0062 17.7638 20.185 17.7787 20.349 17.8085C20.349 17.7936 20.3639 17.7787 20.3639 17.7489C20.2893 17.719 20.2297 17.7041 20.1552 17.6892C19.5591 17.5402 18.9481 17.57 18.337 17.6594C17.8452 17.734 17.3683 17.8383 16.8914 17.9426C15.8929 18.1363 15.1179 17.7936 14.5218 17.0037C14.492 16.959 14.4771 16.9143 14.4324 16.8547C14.9242 16.8994 15.3713 16.959 15.8333 17.0037C15.8333 16.9888 15.8482 16.9739 15.8482 16.959C15.0136 16.7503 14.4175 16.3032 14.179 15.4538C14.1939 15.4389 14.1939 15.424 14.2088 15.4091C14.4473 15.5432 14.7007 15.6624 14.9391 15.7965C14.2387 15.0514 14.0449 14.1572 14.1194 13.1736C14.3132 13.4269 14.4771 13.6952 14.7305 13.8591C14.6112 13.4865 14.4771 13.114 14.3728 12.7265C14.2834 12.339 14.2834 11.9366 14.4771 11.564C14.5367 11.9813 14.6858 12.339 14.9391 12.6669C14.6708 11.7727 14.7006 10.9083 15.0732 10.0439C15.1179 9.93959 15.1925 9.85018 15.2819 9.77566C15.1477 10.2973 15.1328 10.804 15.2968 11.3256C15.3117 11.3107 15.3266 11.2958 15.3415 11.2809C15.4309 10.8934 15.6694 10.5953 15.9227 10.2973C16.1314 10.0588 16.3102 9.80547 16.489 9.55211C16.5635 9.44779 16.5934 9.32856 16.6679 9.22424C16.6381 9.58192 16.5934 9.9396 16.5486 10.3271C16.8616 9.74586 17.0255 9.16463 17.0852 8.5387C17.1001 8.5387 17.115 8.5387 17.1299 8.5387C17.1597 8.65792 17.1895 8.79205 17.2193 8.91128C17.2342 9.04541 17.2491 9.17953 17.264 9.31366C17.5472 8.33005 17.5024 7.31663 17.3534 6.31812C17.3683 6.31812 17.3832 6.30322 17.3832 6.30322C17.4279 6.36284 17.4726 6.42245 17.5174 6.48206C17.8303 6.97386 17.9793 7.52528 18.039 8.0916C18.1284 8.92618 17.9943 9.73095 17.7707 10.5208C17.6366 11.0126 17.4577 11.4895 17.2938 11.9813C17.2789 12.0111 17.2789 12.0409 17.264 12.0707C17.5173 11.728 17.7707 11.3852 18.2178 11.2511C17.875 11.6535 17.6366 12.1006 17.4875 12.6371C17.6515 12.5029 17.8005 12.3986 17.9495 12.2794C17.9644 12.2943 17.9793 12.2943 17.9793 12.3092C17.9495 12.3986 17.9346 12.488 17.9048 12.5775C17.7558 13.1289 17.6664 13.6952 17.7707 14.2764C17.8154 14.5596 17.9197 14.8129 18.1135 15.0365C18.3817 15.3345 18.7245 15.424 19.0971 15.2749C19.4399 15.1557 19.7826 15.0067 20.1254 14.8725C20.4682 14.7384 20.8109 14.7235 21.1537 14.8725C21.2282 14.9024 21.2729 14.8874 21.3027 14.798C21.6753 13.9485 22.2268 13.2481 22.957 12.6818C23.0464 12.6222 23.0315 12.5626 22.9868 12.488C22.8676 12.2943 22.7931 12.1006 22.8527 11.877C22.8825 11.7727 22.9421 11.6833 22.9868 11.5938C23.0017 11.5938 23.0166 11.6087 23.0315 11.6087C23.0315 11.6535 23.0315 11.6833 23.0315 11.728C23.0315 12.0111 23.1955 12.2198 23.4786 12.2496C23.6873 12.2645 23.8959 12.2496 24.0896 12.2496C24.4771 12.2496 24.8497 12.2943 25.2074 12.4731C25.4607 12.6073 25.6545 12.801 25.7588 13.0693C25.7886 13.1587 25.8482 13.1885 25.9227 13.2183C26.0569 13.2481 26.191 13.2928 26.3102 13.3524C26.4294 13.412 26.4891 13.5164 26.4593 13.6803C26.3549 13.6207 26.2655 13.576 26.1612 13.5164C26.191 13.6803 26.1016 13.6356 26.0271 13.6356C25.4011 13.6654 24.8497 13.8591 24.4175 14.336C24.1493 14.6341 24.0896 14.9918 24.0598 15.3793C24.0151 16.0052 24.2387 16.5715 24.4473 17.1527C24.6709 17.7638 24.7901 18.3897 24.7305 19.0603C24.6709 19.6267 24.4473 20.1036 24.0598 20.5059C23.7022 20.8934 23.27 21.1766 22.808 21.4001C23.0613 21.0425 23.3296 20.6997 23.568 20.3271C23.8065 19.9545 23.9704 19.5372 24.0896 19.105C22.8676 21.2064 21.0643 22.2645 18.6202 22.2347C20.2595 21.6088 21.1239 20.491 21.273 18.8219Z" fill="#FCDE02"/>
<path d="M18.2324 23.9341C17.9641 24.1279 17.6959 24.2322 17.4276 24.3216C16.7868 24.5004 16.1609 24.4855 15.5051 24.3812C14.6258 24.2322 13.8062 23.8894 12.9567 23.5913C12.2115 23.3231 11.4664 23.0697 10.7212 22.8611C10.1549 22.6971 9.57367 22.6524 9.00734 22.8313C8.21748 23.0697 7.72567 23.636 7.4127 24.3812C7.3829 24.4408 7.36799 24.5004 7.33819 24.56C7.32328 24.6197 7.30838 24.6644 7.26367 24.724C7.27858 24.6048 7.27858 24.4706 7.30838 24.3514C7.47232 23.6957 7.78528 23.1293 8.3367 22.727C8.84341 22.3544 9.40973 22.2053 10.0208 22.2202C10.9895 22.2352 11.8837 22.5481 12.7778 22.8909C13.6273 23.2188 14.4619 23.5913 15.3263 23.9043C16.0267 24.1577 16.7719 24.2918 17.5171 24.1577C17.7406 24.0831 17.9641 24.0086 18.2324 23.9341Z" fill="#FCDE02"/>
<path d="M16.9663 23.6059C15.6399 23.5761 14.4626 23.2035 13.5237 22.2348C12.8828 21.5642 12.5251 20.7594 12.5251 19.8205C12.5251 19.5225 12.5997 19.2393 12.6444 18.9412C12.6444 18.8965 12.6742 18.8667 12.7189 18.8369C12.7338 19.0158 12.7338 19.1797 12.7487 19.3585C12.8232 20.3868 13.2703 21.2512 14.0006 21.9666C14.7457 22.6968 15.6399 23.1588 16.6235 23.5016C16.7427 23.5314 16.8471 23.5761 16.9663 23.6059Z" fill="#FCDE02"/>
<path d="M24.6411 20.1929C24.5964 20.5804 24.4325 20.9082 24.2089 21.2212C23.7619 21.8173 23.1508 22.1899 22.4653 22.4582C21.3774 22.8754 20.2447 23.0096 19.0823 22.9351C18.7395 22.9202 18.4116 22.8605 18.0688 22.8009C18.352 22.786 18.6352 22.786 18.9183 22.7711C20.0808 22.7115 21.2283 22.5178 22.3163 22.0707C23.0018 21.7875 23.6277 21.4149 24.1344 20.8486C24.2984 20.6698 24.4176 20.476 24.5666 20.2823C24.5964 20.2525 24.6113 20.2227 24.6411 20.1929Z" fill="#FCDE02"/>
<path d="M20.1251 22.294C19.842 22.3536 19.5737 22.443 19.2906 22.4877C18.605 22.592 17.9344 22.5473 17.2935 22.2343C16.6825 21.9363 16.2652 21.4892 16.1758 20.7887C16.0715 19.984 16.608 19.2984 17.383 19.2537C17.5916 19.2388 17.7853 19.2835 17.9642 19.4177C17.8599 19.4027 17.7555 19.3729 17.6512 19.3729C16.8762 19.358 16.3695 19.9989 16.5186 20.7738C16.6229 21.3253 16.9657 21.6829 17.4426 21.9363C18.143 22.294 18.8882 22.3536 19.6631 22.294C19.8122 22.2791 19.9612 22.2642 20.1102 22.2493C20.1251 22.2642 20.1251 22.2791 20.1251 22.294Z" fill="#FCDE02"/>
<path d="M21.928 22.95C20.0353 23.7995 18.1575 23.7995 16.2648 22.9053C18.1575 23.2629 20.0353 23.2928 21.928 22.95Z" fill="#FCDE02"/>
<path d="M15.5649 4.84277C15.7736 4.91729 15.9375 5.06632 16.0717 5.21535C16.4144 5.60284 16.5933 6.06483 16.6678 6.57154C16.8168 7.61476 16.638 8.59837 16.176 9.52237C16.1611 9.53727 16.1462 9.56708 16.1164 9.58198C16.1164 9.53728 16.1164 9.49256 16.1313 9.44785C16.176 8.91134 16.2505 8.37483 16.2803 7.82341C16.325 7.18257 16.2952 6.52683 16.1164 5.9009C16.012 5.55813 15.8779 5.24516 15.6693 4.962C15.6246 4.93219 15.5947 4.88748 15.5649 4.84277Z" fill="#FCDE02"/>
<path d="M16.5038 22.6375C15.5351 22.1755 14.8197 21.5048 14.6856 20.3722C14.6111 19.8506 14.8048 19.2097 15.1327 18.8521C15.1178 18.8968 15.1178 18.9266 15.1178 18.9564C14.7899 19.8357 14.9389 20.6553 15.4307 21.4303C15.7139 21.8774 16.0716 22.2351 16.474 22.5629C16.4889 22.5778 16.5187 22.5927 16.5336 22.6226C16.5187 22.6226 16.5187 22.6226 16.5038 22.6375Z" fill="#FCDE02"/>
<path d="M17.7406 21.6681C17.2488 21.6234 16.8613 21.1465 16.9358 20.6696C16.9955 20.2374 17.3829 19.9394 17.8002 20.0139C17.4276 20.1629 17.219 20.4312 17.2339 20.8186C17.2339 21.1763 17.4426 21.4297 17.7406 21.6681Z" fill="#FCDE02"/>
</svg>
