<svg width="45" height="43" viewBox="0 0 45 43" fill="none" xmlns="http://www.w3.org/2000/svg">
<mask id="mask0_122_4220" style="mask-type:luminance" maskUnits="userSpaceOnUse" x="0" y="3" width="44" height="40">
<path d="M11.3076 3.54883L43.0672 18.2646L31.8065 42.5677L0.0468336 27.8519L11.3076 3.54883Z" fill="white"/>
</mask>
<g mask="url(#mask0_122_4220)">
<path d="M4.74745 17.7214C4.07823 18.7471 23.4858 39.1958 24.439 39.1393C25.3923 39.0826 43.7972 18.922 42.9848 18.2345C42.1723 17.5472 5.08861 17.1989 4.74745 17.7214Z" fill="#008CFF"/>
</g>
<mask id="mask1_122_4220" style="mask-type:luminance" maskUnits="userSpaceOnUse" x="0" y="15" width="31" height="25">
<path d="M5.68671 15.6807L30.1449 27.0133L24.5047 39.1858L0.0465916 27.8532L5.68671 15.6807Z" fill="white"/>
</mask>
<g mask="url(#mask1_122_4220)">
<path d="M24.4381 39.1388C24.4487 39.138 24.4644 39.132 24.4791 39.1264L23.0598 23.7569L4.74661 17.7209C4.07738 18.7465 23.485 39.1953 24.4381 39.1388Z" fill="#064DFF"/>
</g>
<path d="M33.2436 12.9641L30.2375 16.2368C30.2375 16.2368 33.1579 23.2474 33.5099 23.3114C33.8614 23.3756 42.8344 18.6052 42.9842 18.2336C43.1343 17.8622 38.1586 12.2476 38.1586 12.2476L33.2436 12.9641Z" fill="#0078EF"/>
<path d="M17.3757 16.0079C17.3757 16.0079 13.6703 22.7457 13.0391 22.9594C12.4078 23.1732 4.92202 18.3573 4.74707 17.7203C4.57222 17.0831 9.25702 11.9894 9.91636 11.6205C10.5755 11.2519 17.3757 16.0079 17.3757 16.0079Z" fill="#119CFF"/>
<mask id="mask2_122_4220" style="mask-type:luminance" maskUnits="userSpaceOnUse" x="8" y="15" width="26" height="25">
<path d="M16.5319 15.3652L33.6872 23.3141L26.014 39.8745L8.85865 31.9256L16.5319 15.3652Z" fill="white"/>
</mask>
<g mask="url(#mask2_122_4220)">
<path d="M13.0384 22.9615C13.0384 22.9615 23.8865 39.1371 24.438 39.1403C24.9898 39.1434 33.8658 24.0076 33.5095 23.3132C32.9112 22.1483 13.0384 22.9615 13.0384 22.9615Z" fill="#00B7FF"/>
</g>
<path d="M15.9077 8.13818C14.7216 8.21415 9.99433 10.939 9.91566 11.621C9.83702 12.3035 16.7043 15.9117 17.375 16.0084C18.0458 16.1055 29.4475 16.481 30.237 16.2371C31.0268 15.9932 38.2341 12.7448 38.1581 12.2479C38.0821 11.751 31.445 8.45443 30.4532 8.23141C29.461 8.0085 17.0941 8.0621 15.9077 8.13818Z" fill="#12C8FA"/>
<path d="M17.3748 16.0087C17.3748 16.0087 12.7102 22.5549 13.0382 22.9603C13.3667 23.3656 33.1416 23.8997 33.5092 23.312C33.8763 22.7246 30.2369 16.2374 30.2369 16.2374L17.3748 16.0087Z" fill="#07D9FF"/>
<path d="M17.8899 17.6645C18.057 17.4699 23.8319 17.3402 24.2999 17.7711C24.7679 18.202 15.9024 22.4215 15.6472 21.6022C15.5139 21.1734 17.3329 18.3138 17.8899 17.6645Z" fill="#12C8FA"/>
<path d="M31.2293 25.3219C31.613 25.5914 26.9824 34.6937 26.107 34.3187C25.2319 33.9437 24.9323 25.6028 25.2441 25.136C25.5557 24.6691 30.8457 25.0523 31.2293 25.3219Z" fill="#00A7CE"/>
<path d="M20.4323 8.72901C20.4323 8.72901 16.4887 8.58836 15.6885 8.88271C14.3271 9.38396 11.4991 11.3097 11.5014 11.7448C11.5037 12.1801 17.0132 14.6853 17.8328 14.8115C18.6525 14.9374 29.2758 15.2897 29.8767 14.9847C30.4778 14.6794 23.2185 13.5804 20.4323 8.72901Z" fill="#3BDAFF"/>
<path d="M15.16 16.7448C15.0634 16.3416 13.1107 15.3555 11.3824 14.5441C10.7582 14.2513 11.8892 21.0522 12.3117 21.2526C12.5324 21.3574 15.2246 17.0165 15.16 16.7448Z" fill="#0594DB"/>
<path d="M5.32244 17.5669C5.20227 17.94 8.42374 19.9123 8.57848 19.7316C8.73321 19.551 7.94238 14.9707 7.45247 15.122C6.96224 15.2735 5.44292 17.1936 5.32244 17.5669Z" fill="#0594DB"/>
<path d="M38.2731 13.6486C37.4616 13.278 31.6447 16.3642 31.6408 16.8873C31.637 17.4106 39.076 19.7762 39.7955 19.4579C40.5149 19.1401 41.9335 18.6511 42.1608 18.1604C42.3882 17.6697 39.0846 14.0192 38.2731 13.6486Z" fill="#008CFF"/>
<path d="M10.5861 12.3484C10.7604 12.9335 15.5824 15.5956 15.8784 16.1914C16.2254 16.8892 14.2438 20.3469 14.3834 20.4005C14.5233 20.4539 17.0325 17.1472 17.4778 16.9935C17.9829 16.8192 29.9707 16.7475 30.4255 16.575C30.88 16.4025 35.4424 14.041 35.3603 13.9307C35.2837 13.8277 30.8809 16.0921 29.9922 16.1234C29.1033 16.1549 17.9876 16.0988 17.076 15.7683C16.1645 15.4375 10.5417 12.1981 10.5861 12.3484Z" fill="#88EEFF"/>
<path d="M16.0274 23.2539C16.1856 24.0358 25.0108 24.336 25.0266 23.5428C25.0374 23.0147 15.8964 22.6075 16.0274 23.2539Z" fill="white"/>
<path d="M30.6933 20.0434C30.2962 20.127 31.0265 22.422 31.4929 22.3498C31.9593 22.2776 31.0906 19.9596 30.6933 20.0434Z" fill="white"/>
<path d="M18.4055 9.72669C18.0185 9.40578 17.1205 10.3885 17.5578 10.7695C17.9951 11.1502 18.7925 10.0473 18.4055 9.72669Z" fill="white"/>
<path d="M9.47567 13.9747C9.08852 13.654 8.19052 14.6368 8.62789 15.0175C9.06517 15.3984 9.86251 14.2955 9.47567 13.9747Z" fill="#0594DB"/>
<path d="M22.7512 33.0839C21.8359 33.4936 23.147 36.2531 24.2179 35.8096C25.2888 35.3658 23.6663 32.674 22.7512 33.0839Z" fill="#00A7CE"/>
<path d="M23.4407 19.8267C21.9877 20.8846 25.6078 22.3003 26.2391 20.9396C27.2048 18.8565 24.1619 19.3016 23.4407 19.8267Z" fill="#12C8FA"/>
<path d="M16.7593 9.70164C16.317 9.3756 13.0736 11.1697 13.7071 11.9397C14.3407 12.7095 17.2014 10.0279 16.7593 9.70164Z" fill="white"/>
</svg>
