<svg width="11" height="12" viewBox="0 0 11 12" fill="none" xmlns="http://www.w3.org/2000/svg">
<path d="M5.72058 8.69129C6.88537 8.49002 7.76686 7.92668 8.4115 6.99328C8.86522 6.33612 9.09335 5.60272 9.12548 4.80636C9.1351 4.56625 9.18537 4.34411 9.44127 4.24538C9.78319 4.11343 10.0865 4.33612 10.1197 4.75445C10.2104 5.89583 9.99009 6.97187 9.39916 7.95844C8.65851 9.19492 7.59245 10.0201 6.20879 10.4269C6.06632 10.4688 6.02113 10.527 6.05252 10.6686C6.08701 10.8238 6.11133 10.9818 6.13183 11.1396C6.16868 11.4249 5.98138 11.5869 5.73601 11.4523C5.02414 11.0601 4.31948 10.6549 3.6224 10.237C3.41224 10.1114 3.37975 9.87985 3.54236 9.68675C4.05452 9.07876 4.57793 8.47985 5.11078 7.89002C5.17775 7.81579 5.34073 7.77114 5.43583 7.79746C5.51369 7.81906 5.58229 7.95989 5.60933 8.06007C5.66142 8.2539 5.6812 8.45644 5.72058 8.69129ZM4.41405 2.81489C3.24981 3.00872 2.3705 3.57514 1.72458 4.50617C1.26959 5.16207 1.03928 5.89583 1.00825 6.69292C0.998992 6.93303 0.949264 7.15517 0.69627 7.25771C0.37431 7.3882 0.0561619 7.1784 0.0238571 6.80581C-0.0966509 5.41997 0.237105 4.15663 1.07685 3.04048C1.80698 2.07006 2.75997 1.41326 3.92803 1.07714C4.06959 1.03631 4.11695 0.979863 4.08483 0.836669C4.04813 0.672488 4.02044 0.50642 4.00189 0.339211C3.97231 0.0735122 4.16523 -0.0827489 4.39844 0.0457446C5.1102 0.438467 5.81479 0.844038 6.51187 1.26226C6.73074 1.39347 6.75742 1.62542 6.58156 1.83376C6.07392 2.43451 5.556 3.02649 5.02802 3.60944C4.96015 3.68458 4.80008 3.73195 4.70371 3.70799C4.62603 3.68857 4.55325 3.54919 4.52621 3.44991C4.47322 3.2559 4.4538 3.05282 4.41405 2.81489Z" fill="white"/>
</svg>
