<svg width="63" height="35" viewBox="0 0 63 35" fill="none" xmlns="http://www.w3.org/2000/svg">
<path d="M12.561 4.89276C12.9832 3.4571 15.0168 3.4571 15.439 4.89276L16.951 10.0332C17.0949 10.5225 17.4775 10.9051 17.9668 11.049L23.1072 12.561C24.5429 12.9832 24.5429 15.0168 23.1072 15.439L17.9668 16.951C17.4775 17.0949 17.0949 17.4775 16.951 17.9668L15.439 23.1072C15.0168 24.5429 12.9832 24.5429 12.561 23.1072L11.049 17.9668C10.9051 17.4775 10.5225 17.0949 10.0332 16.951L4.89276 15.439C3.4571 15.0168 3.4571 12.9832 4.89276 12.561L10.0332 11.049C10.5225 10.9051 10.9051 10.5225 11.049 10.0332L12.561 4.89276Z" fill="#F3D802"/>
<circle cx="2" cy="2" r="2" transform="matrix(-1 0 0 1 63 12)" fill="#11C075" fill-opacity="0.1"/>
<circle cx="2" cy="2" r="2" transform="matrix(-1 0 0 1 56 12)" fill="#11C075" fill-opacity="0.2"/>
<circle cx="2" cy="2" r="2" transform="matrix(-1 0 0 1 49 12)" fill="#11C075" fill-opacity="0.3"/>
<circle cx="2" cy="2" r="2" transform="matrix(-1 0 0 1 42 12)" fill="#11C075" fill-opacity="0.4"/>
<circle cx="2" cy="2" r="2" transform="matrix(-1 0 0 1 35 12)" fill="#11C075" fill-opacity="0.5"/>
<path d="M25.5203 24.6309C25.6611 24.1524 26.3389 24.1524 26.4797 24.6309L27.2867 27.3747C27.3346 27.5378 27.4622 27.6654 27.6253 27.7133L30.3691 28.5203C30.8476 28.6611 30.8476 29.3389 30.3691 29.4797L27.6253 30.2867C27.4622 30.3346 27.3346 30.4622 27.2867 30.6253L26.4797 33.3691C26.3389 33.8476 25.6611 33.8476 25.5203 33.3691L24.7133 30.6253C24.6654 30.4622 24.5378 30.3346 24.3747 30.2867L21.6309 29.4797C21.1524 29.3389 21.1524 28.6611 21.6309 28.5203L24.3747 27.7133C24.5378 27.6654 24.6654 27.5378 24.7133 27.3747L25.5203 24.6309Z" fill="#F3D802"/>
</svg>
