<svg width="18" height="15" viewBox="0 0 18 15" fill="none" xmlns="http://www.w3.org/2000/svg">
<path d="M10.5796 2.53227C11.3902 3.04052 11.9586 3.90058 12.0621 4.89892C12.402 5.05882 12.773 5.14189 13.1486 5.14222C14.5688 5.14222 15.7198 3.99116 15.7198 2.57122C15.7198 1.15105 14.5688 0 13.1486 0C11.742 0.00043758 10.601 1.13092 10.5796 2.53227ZM8.89512 7.79679C10.3153 7.79679 11.4663 6.64552 11.4663 5.22557C11.4663 3.80563 10.3151 2.65458 8.89512 2.65458C7.47517 2.65458 6.32346 3.80585 6.32346 5.22579C6.32346 6.64574 7.47517 7.79679 8.89512 7.79679ZM9.98578 7.97204H7.80401C5.98871 7.97204 4.51188 9.44909 4.51188 11.2644V13.9325L4.51867 13.9743L4.70245 14.0319C6.43483 14.5731 7.93988 14.7537 9.17867 14.7537C11.5983 14.7537 13.0007 14.0638 13.0871 14.0198L13.2589 13.933H13.2773V11.2644C13.2779 9.44909 11.8011 7.97204 9.98578 7.97204ZM14.2397 5.31769H12.0748C12.0528 6.15363 11.7013 6.94699 11.0968 7.52484C12.7104 8.00464 13.891 9.50095 13.891 11.2683V12.0905C16.0285 12.0122 17.2603 11.4064 17.3415 11.3657L17.5132 11.2786H17.5316V8.6096C17.5316 6.79452 16.0548 5.31769 14.2397 5.31769ZM4.38345 5.14265C4.88645 5.14265 5.35444 4.99585 5.75089 4.74577C5.87528 3.94116 6.30335 3.21484 6.94701 2.71628C6.94964 2.66814 6.95423 2.62045 6.95423 2.57187C6.95423 1.15171 5.80296 0.000656322 4.38345 0.000656322C2.96307 0.000656322 1.81224 1.15171 1.81224 2.57187C1.81224 3.99138 2.96307 5.14265 4.38345 5.14265ZM6.69256 7.52484C6.09146 6.94975 5.74045 6.16145 5.71523 5.32994C5.63493 5.32403 5.55551 5.31769 5.47368 5.31769H3.29213C1.47683 5.31769 0 6.79452 0 8.6096V11.2782L0.00678248 11.3193L0.190566 11.3773C1.58032 11.8111 2.82064 12.0111 3.89796 12.0741V11.2683C3.8984 9.50095 5.07855 8.00508 6.69256 7.52484Z" fill="#03A84E"/>
</svg>
