<svg width="23" height="23" viewBox="0 0 23 23" fill="none" xmlns="http://www.w3.org/2000/svg">
<g clip-path="url(#clip0_1_501)">
<path d="M13.6591 4.96084C14.6847 5.60385 15.4038 6.69196 15.5348 7.955C15.9648 8.1573 16.4341 8.26239 16.9093 8.2628C18.7061 8.2628 20.1623 6.80655 20.1623 5.01011C20.1623 3.21339 18.7061 1.75714 16.9093 1.75714C15.1298 1.75769 13.6863 3.18793 13.6591 4.96084ZM11.5281 11.6212C13.3248 11.6212 14.781 10.1647 14.781 8.36827C14.781 6.57182 13.3245 5.11557 11.5281 5.11557C9.73161 5.11557 8.27453 6.5721 8.27453 8.36854C8.27453 10.165 9.73161 11.6212 11.5281 11.6212ZM12.9079 11.843H10.1476C7.85102 11.843 5.98261 13.7116 5.98261 16.0083V19.3839L5.99119 19.4367L6.22371 19.5095C8.41542 20.1943 10.3195 20.4227 11.8868 20.4227C14.9479 20.4227 16.7222 19.5499 16.8316 19.4943L17.0489 19.3844H17.0721V16.0083C17.0729 13.7116 15.2045 11.843 12.9079 11.843ZM18.2898 8.4848H15.5508C15.523 9.54239 15.0782 10.5461 14.3135 11.2772C16.3549 11.8842 17.8485 13.7772 17.8485 16.0132V17.0535C20.5529 16.9544 22.1113 16.1879 22.214 16.1364L22.4313 16.0263H22.4545V12.6496C22.4545 10.3532 20.5861 8.4848 18.2898 8.4848ZM5.82013 8.26336C6.4565 8.26336 7.04857 8.07762 7.55014 7.76124C7.70751 6.74329 8.24909 5.82439 9.06341 5.19363C9.06673 5.13273 9.07255 5.07239 9.07255 5.01094C9.07255 3.21422 7.61602 1.75797 5.82013 1.75797C4.02314 1.75797 2.56716 3.21422 2.56716 5.01094C2.56716 6.80683 4.02314 8.26336 5.82013 8.26336ZM8.74149 11.2772C7.98101 10.5496 7.53693 9.55229 7.50502 8.5003C7.40343 8.49283 7.30296 8.4848 7.19943 8.4848H4.43945C2.14282 8.4848 0.274414 10.3532 0.274414 12.6496V16.0257L0.282995 16.0777L0.515508 16.1511C2.27375 16.7 3.84294 16.953 5.20591 17.0327V16.0132C5.20646 13.7772 6.69953 11.8848 8.74149 11.2772Z" fill="white"/>
</g>
<defs>
<clipPath id="clip0_1_501">
<rect width="22.1801" height="22.1801" fill="white" transform="translate(0.274414)"/>
</clipPath>
</defs>
</svg>
